<?xml version="1.0" encoding="utf-8"?>
<!-- Generator: Adobe Illustrator 24.3.0, SVG Export Plug-In . SVG Version: 6.00 Build 0)  -->
<svg version="1.1" id="Layer_1" xmlns="http://www.w3.org/2000/svg" xmlns:xlink="http://www.w3.org/1999/xlink" x="0px" y="0px"
	 viewBox="0 0 2000 2000" style="enable-background:new 0 0 2000 2000;" xml:space="preserve">
<style type="text/css">
	.st0{fill:none;stroke:url(#SVGID_1_);stroke-miterlimit:10;}
	.st1{fill:url(#SVGID_2_);stroke:#000000;stroke-width:8;stroke-miterlimit:10;}
	.st2{fill:#FFFFFF;stroke:#FFFFFF;stroke-width:8;stroke-miterlimit:10;}
	.st3{fill:none;stroke:#FFFFFF;stroke-width:10;stroke-miterlimit:10;}
	.st4{fill:url(#SVGID_3_);stroke:#000000;stroke-width:8;stroke-miterlimit:10;}
	.st5{fill:none;stroke:#FFFFFF;stroke-width:7;stroke-miterlimit:10;}
	.st6{fill:none;stroke:url(#SVGID_4_);stroke-width:3;stroke-miterlimit:10;}
	.st7{fill:url(#SVGID_5_);}
	.st8{fill:url(#SVGID_6_);}
	.st9{fill:url(#SVGID_7_);}
	.st10{fill:url(#SVGID_8_);}
	.st11{fill:url(#SVGID_9_);}
	.st12{fill:url(#SVGID_10_);}
	.st13{fill:url(#SVGID_11_);}
	.st14{fill:url(#SVGID_12_);}
	.st15{fill:url(#SVGID_13_);}
	.st16{fill:url(#SVGID_14_);}
	.st17{fill:url(#SVGID_15_);}
	.st18{fill:url(#SVGID_16_);}
	.st19{fill:url(#SVGID_17_);}
	.st20{fill:url(#SVGID_18_);}
	.st21{fill:url(#SVGID_19_);}
</style>
<linearGradient id="SVGID_1_" gradientUnits="userSpaceOnUse" x1="260.27" y1="1490.08" x2="260.27" y2="1490.08" gradientTransform="matrix(1 0 0 -1 0 2000)">
	<stop  offset="0" style="stop-color:#3953A4"/>
	<stop  offset="1" style="stop-color:#833293"/>
</linearGradient>
<path class="st0" d="M260.27,509.92"/>
<linearGradient id="SVGID_2_" gradientUnits="userSpaceOnUse" x1="19.21" y1="1155.085" x2="543.86" y2="1155.085" gradientTransform="matrix(1 0 0 -1 0 2000)">
	<stop  offset="0" style="stop-color:#4457A6"/>
	<stop  offset="1" style="stop-color:#CB509D"/>
</linearGradient>
<polyline class="st1" points="342.41,1171.11 378.49,1159.86 385.94,1141.89 400.39,1105.33 419.09,1073.65 445.2,1040.67 
	467.74,1011.98 490.66,977.65 509.99,941.05 525.45,904.74 537.07,867.12 543.86,822.6 543.86,771.46 535.77,726.26 522.88,687.34 
	504.51,647.41 480.97,615.14 455.19,587.05 426.5,564.59 395.88,546.78 361.67,532.24 319.47,522.68 281.22,518.72 281.85,518.72 
	243.6,522.68 201.35,532.24 167.19,546.78 136.57,564.59 107.88,587.05 82.1,615.14 58.56,647.41 40.19,687.34 27.3,726.26 
	19.21,771.46 19.21,822.6 25.99,867.12 37.62,904.74 53.08,941.05 72.41,977.65 95.33,1011.98 117.87,1040.67 143.98,1073.65 
	162.68,1105.33 177.13,1141.89 186.06,1159.86 206.71,1166.9 219.38,1170.56 "/>
<path class="st2" d="M333.29,586.65c5.09,3.92,9.82,8.35,15.27,11.71c21.02,13.03,42.25,25.76,63.47,38.48
	c1.58,0.97,3.82,1.17,5.75,1.17c3.72-0.05,6.62,2.95,6.77,6.87c0.05,2.14,0.41,4.48,1.43,6.31c11.66,20.67,23.41,41.28,35.33,61.84
	c1.12,1.88,3.21,3.46,5.14,4.58c3.72,2.09,4.63,5.24,2.8,9.06c-0.92,1.83-1.32,4.17-1.07,6.16c1.22,9.52,2.55,19.04,4.28,28.5
	c0.46,2.65,1.88,5.4,3.56,7.53c2.85,3.56,2.75,6.41-0.66,9.31c-2.29,1.93-4.63,4.02-6.31,6.46c-5.24,7.53-10.28,15.22-15.17,22.96
	c-0.81,1.32-0.36,3.36-0.76,5.04c-0.56,2.49-0.66,6.01-2.29,7.13c-1.58,1.12-5.45,0.71-7.33-0.56c-5.4-3.56-14.81-2.49-18.12,3.05
	c-3.87,6.41-7.43,12.98-11.05,19.55c-1.88,3.41-5.85,4.99-8.6,2.44c-3.56-3.31-7.79-2.9-11.86-3.46c-3.1-0.41-6.36-1.17-9.26-0.51
	c-3.97,0.92-8.65,2.09-11.3,4.84c-4.07,4.17-7.94,9.42-4.22,16.19c2.19,4.02,3.97,8.25,5.9,12.42c1.37,2.9,2.24,5.8,6.72,5.75
	c3.16-0.05,5.09,4.63,3.61,7.79c-1.53,3.26-4.43,4.89-7.69,3.26c-6.82-3.41-12.57,1.37-18.88,1.83c-0.76,0.05-1.27,2.09-2.04,3.1
	c-2.75,3.66-9.16,3.41-10.03-0.81c-1.27-6.57-6.62-9.06-10.69-12.73c-3.77-3.36-8.55-5.6-12.83-8.4c-0.92-0.61-2.19-1.48-2.34-2.39
	c-1.07-6.26-6.41-9.37-10.18-13.44c-7.99-8.7-16.34-17.1-24.64-25.5c-8.4-8.45-19.24-12.67-30.44-15.52
	c-3.26-0.81-7.89,1.17-11.05,3.21c-4.63,3-8.6,7.08-12.73,10.84c-0.97,0.92-1.53,2.34-2.04,3.66c-1.68,4.48-6.06,5.8-9.87,3
	c-1.78-1.27-3.77-2.55-5.85-3.16c-9.42-2.75-18.88-5.4-28.4-7.79c-1.99-0.51-4.28,0.61-6.41,0.41c-2.55-0.25-5.09-0.81-7.43-1.78
	c-2.19-0.92-3.87-3.26-6.06-3.77c-13.95-3.36-27.89-6.52-41.94-9.52c-2.04-0.41-4.33,0.56-6.52,0.51c-2.14,0-4.84,0.31-6.21-0.87
	c-1.43-1.17-1.78-3.87-2.19-6.01c-0.41-1.93,0.2-4.22-0.51-5.96c-5.8-14.56-11.91-29.01-17.76-43.57c-1.37-3.41-3-6.41-6.67-7.79
	c0-2.29,0-4.58,0-6.87c1.02-1.53,2.55-2.95,3.05-4.68c4.43-15.32,8.7-30.64,12.98-46.01c0.31-1.07,0.61-2.29,0.36-3.26
	c-1.73-7.13-1.37-7.84,5.34-10.08c0.76-0.25,1.53-0.66,2.09-1.22c10.74-11.81,21.38-23.72,32.17-35.48c1.17-1.27,3.1-2.04,4.84-2.65
	c1.63-0.61,3.61-0.46,5.14-1.17c29.88-13.69,59.81-27.23,89.43-41.48c5.29-2.55,9.47-6.36,15.52-2.9c0.36,0.2,0.97,0,1.48-0.05
	c21.63-0.87,43.27-1.68,64.9-2.8c2.44-0.1,4.84-1.93,7.23-2.95C330.04,586.65,331.66,586.65,333.29,586.65z M209.71,661.27
	c-13.95,14.35-27.49,28.25-40.98,42.1c-2.7,2.8-3.26,10.84-0.92,13.85c9.42,12.22,18.88,24.38,28.35,36.55
	c2.95,3.82,4.12,3.77,6.77-0.36c8.55-13.59,17.41-26.98,25.35-40.92c1.93-3.41,2.49-9.16,0.92-12.67
	C223.4,686.93,216.48,674.46,209.71,661.27z M285.55,768.52c1.07-0.87,1.68-1.22,1.99-1.73c6.11-9.31,12.37-18.53,18.17-28
	c0.97-1.63,0.81-4.99-0.25-6.62c-8.96-13.69-18.22-27.18-27.54-40.67c-2.19-3.16-5.09-3.92-8.81-1.73
	c-8.04,4.73-16.29,9.11-24.43,13.69c-4.58,2.55-5.09,4.78-2.04,8.86c9.11,12.01,18.17,24.08,27.28,36.04
	C275.01,754.93,280.1,761.5,285.55,768.52z M342.76,650.79c-0.76,2.04-1.27,3.31-1.68,4.63c-7.74,23.36-15.47,46.73-23.21,70.04
	c-2.19,6.52-0.81,8.25,6.11,7.79c9.62-0.66,19.29-1.22,28.91-1.93c8.25-0.61,16.44-1.37,25.3-2.14
	C366.33,702.91,354.72,677.21,342.76,650.79z M219.12,828.53c0.36-0.31,0.71-0.66,1.02-0.97c-0.36-1.22-0.61-2.44-1.02-3.61
	c-5.7-16.49-11.35-32.98-17.31-49.42c-1.02-2.8-3.46-5.09-5.14-7.69c-0.87-1.32-1.48-2.85-2.14-4.28c-0.81-1.99-1.12-4.38-2.39-6.01
	c-8.3-10.99-16.75-21.84-25.2-32.73c-0.81-1.07-1.83-1.99-2.75-3c-0.41,2.85,0.05,5.24,0.41,7.64c3.05,21.02,6.06,42.04,9.31,63.02
	c0.31,1.99,1.78,4.17,3.41,5.45c7.43,5.96,15.07,11.61,22.65,17.36C206.35,819.02,212.71,823.75,219.12,828.53z M281.58,771.12
	c-15.73-20.67-30.54-40.11-45.71-60.01c-1.37,1.48-2.39,2.29-3.05,3.31c-8.7,13.79-17.36,27.69-26.06,41.48
	c-2.29,3.61-0.81,4.73,2.95,5.24c17.82,2.44,35.53,5.09,53.34,7.64C268.75,769.64,274.55,770.25,281.58,771.12z M310.95,731.62
	c9.37-28.35,18.27-55.33,27.49-83.17c-18.43,11.15-36.09,21.68-53.6,32.47c-3,1.83-4.48,5.55-2.39,8.65
	C291.4,703.27,300.72,716.71,310.95,731.62z M315.27,741.34c-0.41,0.2-0.76,0.36-1.17,0.56c1.12,10.69,2.24,21.43,3.41,32.12
	c1.37,12.83,2.75,25.7,4.33,38.53c0.56,4.58,1.83,5.04,5.75,2.7c11.76-7.08,23.57-14.2,35.27-21.38c4.22-2.6,4.48-4.58,0.87-7.89
	c-10.59-9.82-21.28-19.55-31.91-29.37C326.32,751.52,320.82,746.43,315.27,741.34z M243.66,600.7c-0.36-0.51-0.71-1.02-1.07-1.48
	c-30.59,14.1-61.13,28.15-91.72,42.25c17.46,4.12,34.56,7.53,51.77,9.98c4.33,0.61,9.47-1.48,12.32-5.8
	c9.16-13.95,18.17-28,27.18-42.04C242.74,602.64,243.15,601.67,243.66,600.7z M255.67,595.87c-0.1,0.66-0.2,1.27-0.31,1.93
	c27.64,13.39,55.28,26.82,83.83,40.67c-3.1-13.34-5.55-25.6-9.01-37.56c-0.76-2.65-5.04-6.06-7.74-6.11
	c-14.1-0.2-28.2,0.71-42.3,1.02C271.96,596.02,263.81,595.87,255.67,595.87z M159.82,703.93c0.51,0.15,1.02,0.25,1.58,0.41
	c14.86-15.37,29.78-30.74,45.71-47.19c-20.41-3.56-39.04-6.87-58.84-10.33C152.29,666.72,156.06,685.35,159.82,703.93z
	 M329.48,640.05c-0.05-0.36-0.1-0.76-0.1-1.12c-25.45-12.32-50.9-24.69-77.27-37.46c5.45,15.83,10.43,30.44,15.63,45.45
	C288.4,644.58,308.96,642.29,329.48,640.05z M318.68,738.13c17.56,16.14,34,31.25,50.95,46.83c2.75-17.36,5.29-33.75,7.99-50.8
	C358.29,735.49,339.2,736.76,318.68,738.13z M407.86,640.81c0.05-0.31,0.15-0.61,0.2-0.87c-24.03-14.56-48.1-29.12-72.43-43.88
	c-0.41,1.22-0.92,1.83-0.81,2.34c2.75,12.52,5.6,25.04,8.45,37.56c0.15,0.66,0.76,1.53,1.43,1.78c4.07,1.73,7.99,3.51,12.83,3.26
	c9.82-0.51,19.65-0.15,29.52-0.15C393.92,640.81,400.89,640.81,407.86,640.81z M91.41,738.8c0.51,0.41,0.97,0.81,1.48,1.22
	c19.9-10.49,39.75-20.97,60.17-31.66c-13.59-6.72-26.47-13.13-39.35-19.49c-4.53-2.24-8.04-0.71-9.42,4.17
	c-2.95,10.33-5.8,20.67-8.65,31C94.21,728.97,92.79,733.91,91.41,738.8z M348.26,649.92c0.1,1.12,0,1.63,0.15,1.99
	c10.74,23.77,21.48,47.59,32.22,71.31c0.41,0.92,1.37,1.58,2.09,2.34c0.81-0.87,2.04-1.58,2.44-2.6
	c4.68-12.01,9.37-23.97,13.74-36.09c0.41-1.17-0.71-3.66-1.88-4.48c-11.2-7.69-22.5-15.17-33.8-22.65
	C358.39,656.54,353.55,653.38,348.26,649.92z M280.1,775.75c-24.79-3.46-48.61-6.77-72.38-10.13
	c11.15,13.59,22.75,26.21,34.41,38.79c2.85,3.1,7.94,3.31,10.84,0.25C261.78,795.45,270.48,786.08,280.1,775.75z M171.89,817.9
	c0.36-1.02,0.81-1.63,0.76-2.19c-0.71-5.7-1.43-11.35-2.44-17c-0.2-1.12-1.32-2.24-2.29-2.95c-9.87-7.58-19.9-14.96-29.73-22.6
	c-2.34-1.78-3.72-1.53-4.99,0.92c-4.43,8.76-8.96,17.41-13.23,26.21c-1.37,2.85-0.46,5.4,2.95,6.31c3,0.76,6.06,1.43,9.06,2.14
	C145.21,811.84,158.45,814.84,171.89,817.9z M373,830.11c-1.12-11.4-2.04-20.72-2.95-29.98c-0.25-2.49-1.07-4.48-3.97-2.75
	c-12.67,7.53-25.25,15.17-37.82,22.85c-2.14,1.32-2.44,2.9-0.25,4.63c9.57,7.43,19.09,14.96,28.76,22.35
	c2.7,2.09,8.96,1.02,10.38-2.09C369.64,839.68,371.52,833.93,373,830.11z M455.81,722.56c0.1-0.36,0.2-0.66,0.36-1.02
	c-17.26-11.45-34.51-22.96-52.22-34.71c-5.04,13.34-9.93,26.21-15.17,40.01C411.78,725.41,433.77,723.98,455.81,722.56z
	 M382.01,737.12c-1.12,6.77-2.14,12.52-3,18.27c-1.43,9.16-2.85,18.32-4.22,27.49c-0.51,3.51,0.1,5.45,4.43,4.17
	c2.95-0.87,6.11-0.97,9.16-1.43c9.82-1.58,19.65-3.16,30.08-4.89c-10.64-14.1-20.82-27.69-31.2-41.13
	C386.18,738.39,383.94,738.03,382.01,737.12z M155.19,704.18c-3.92-18.94-7.58-36.8-11.5-55.79c-11.91,11.35-22.8,21.68-34.61,32.98
	C124.9,689.22,139.56,696.5,155.19,704.18z M391.17,731.47c-0.1,0.36-0.15,0.66-0.25,1.02c18.27,9.16,36.6,18.32,55.18,27.64
	c4.28-10.94,8.45-21.58,12.93-33.03C435.66,728.57,413.41,729.99,391.17,731.47z M419.11,648.91c-1.32,2.55-1.99,3.61-2.39,4.73
	c-3.26,8.4-6.26,16.85-9.72,25.2c-1.22,2.9-0.51,4.22,1.99,5.85c14.96,9.77,29.78,19.75,44.69,29.57c0.81,0.56,1.78,0.81,3.77,1.68
	C444.56,693.34,432.19,671.81,419.11,648.91z M154.07,714.36c-0.31-0.31-0.61-0.56-0.87-0.87c-19.09,10.08-38.18,20.16-58.18,30.69
	c9.62,4.73,18.27,8.91,26.88,13.29c11.25,5.75,9.93,5.45,14.96-5.4C142.67,739.56,148.32,726.94,154.07,714.36z M352.23,645.34
	c-0.1,0.46-0.2,0.92-0.31,1.37c16.54,10.99,33.09,21.94,49.78,33.03c3.87-10.13,7.53-19.55,11.05-29.01
	c1.53-4.12,0.31-5.8-4.17-5.75c-6.72,0.05-13.44,0.31-20.16,0.36C376.41,645.39,364.29,645.34,352.23,645.34z M158.45,719
	c-0.41-0.05-0.81-0.1-1.22-0.15c-6.11,13.34-12.22,26.67-18.32,40.01c-0.25,0.56-0.76,1.53-0.56,1.78
	c3.16,3.61,1.58,9.26,6.92,12.42c8.09,4.73,15.17,11.15,23.82,17.66C165.37,765.82,161.91,742.41,158.45,719z M247.88,603.35
	c-10.74,16.64-20.92,32.37-31.66,49.02c16.08-1.73,31-3.36,46.68-5.04C257.91,632.77,253.07,618.62,247.88,603.35z M278.88,678.94
	c19.6-11.81,38.23-23.06,56.81-34.31c-0.1-0.2-0.2-0.41-0.36-0.56c-21.94,2.44-43.88,4.84-66.17,7.28
	C272.52,660.87,275.57,669.57,278.88,678.94z M270.23,683.87c-18.78-7.99-36.65-15.63-55.74-23.77
	c6.87,13.44,12.93,25.86,19.6,37.97c0.81,1.48,5.19,2.6,6.87,1.73C250.58,695.07,259.89,689.63,270.23,683.87z M316.29,812.45
	c0.25,0,0.56-0.05,0.81-0.05c-2.55-23.06-5.09-46.07-7.79-70.19c-5.8,8.81-10.84,16.64-16.08,24.33c-2.9,4.22-1.73,9.52,0,12.42
	C300.26,790.51,308.5,801.35,316.29,812.45z M114.16,801.25c5.34-10.54,10.33-19.9,14.81-29.47c1.32-2.8,0-5.6-3.21-7.18
	c-9.82-4.78-19.6-9.67-29.42-14.46c-0.92-0.46-1.99-0.61-3.77-1.17C99.86,766.59,106.83,783.44,114.16,801.25z M394.02,739.25
	c-0.2,0.25-0.36,0.51-0.56,0.76c7.84,10.38,16.44,20.36,23.36,31.36c5.09,8.09,10.94,9.47,19.04,6.57c1.32-0.46,3.26-0.76,3.72-1.73
	c1.78-3.77,3.1-7.74,4.68-11.86C427.15,755.85,410.61,747.55,394.02,739.25z M220.6,656.64c0.31,0.56,0.36,0.97,0.56,1.07
	c16.29,7.02,32.58,14.1,48.97,21.02c3.05,1.32,3.46-0.61,2.65-3c-2.44-7.23-4.89-14.46-7.58-21.58c-0.36-0.92-2.14-1.99-3.16-1.88
	C248.29,653.64,234.49,655.17,220.6,656.64z M207.82,774.07c-0.31,0.2-0.56,0.41-0.87,0.61c1.02,3.05,2.09,6.06,3.1,9.11
	c4.63,13.23,9.21,26.47,13.85,39.7c1.88,5.29,2.65,5.5,6.97,1.78c1.63-1.37,3.16-2.85,4.78-4.22c8.5-7.28,8.5-7.28,0.97-15.52
	C227.01,794.99,217.39,784.51,207.82,774.07z M288.35,780.59c-0.41,0.1-0.76,0.2-1.17,0.31c-1.58,9.62-3.16,19.29-4.78,28.91
	c-1.12,6.36,1.58,9.52,7.99,9.42c5.4-0.1,10.84-0.05,16.24-0.2c2.49-0.05,4.94-0.51,7.99-0.87
	C305.5,805.17,296.9,792.9,288.35,780.59z M285.09,824.41c12.32,12.78,24.08,24.89,35.78,37.06c0.36-10.54-0.2-20.46-0.97-30.39
	c-0.25-3.41-4.78-8.09-7.69-7.94C303.41,823.39,294.66,823.95,285.09,824.41z M383.02,791.28c0.97,0.81,1.22,1.22,1.63,1.43
	c11.61,5.29,23.11,10.79,34.87,15.63c2.09,0.87,6.31-0.1,7.74-1.78c2.04-2.39,3.97-6.77,3.05-9.26c-1.58-4.28-4.89-8.25-8.45-11.2
	c-1.58-1.32-5.55,0.1-8.4,0.41c-2.95,0.31-5.85,0.76-8.75,1.22C397.68,788.83,390.66,790,383.02,791.28z M411.32,834.44
	c1.12-1.02,1.43-1.17,1.58-1.43c2.29-3.56,4.58-7.18,6.87-10.74c2.85-4.53,1.99-7.53-3.05-9.82c-10.99-5.04-21.99-9.98-32.98-14.96
	c-0.92-0.41-1.93-0.56-3.92-1.12c8.81,11.55,16.8,22.24,25.09,32.78C406.59,831.28,409.24,832.76,411.32,834.44z M357.22,853.63
	c-11.3-8.81-21.68-16.95-32.73-25.6c0.71,11.45,1.12,21.84,2.19,32.17c0.15,1.27,4.02,3.56,5.45,3.1
	C340.22,860.6,348.05,857.24,357.22,853.63z M375.74,798.71c-0.36,0.15-0.71,0.31-1.07,0.46c0.97,10.03,1.58,20.11,3.26,29.98
	c0.41,2.49,3.87,5.8,6.41,6.31c6.11,1.22,12.52,1.02,18.78,1.43c0.25-0.41,0.51-0.76,0.76-1.17
	C394.48,823.39,385.11,811.02,375.74,798.71z M467.88,777.68c-4.73,0.76-8.4,1.53-12.11,1.99c-13.9,1.68-13.95,1.63-18.22,14.96
	c-0.36,1.12-0.51,2.75,0.05,3.56c2.65,3.87,5.6,7.53,8.86,11.86C453.62,799.06,460.44,788.78,467.88,777.68z M253.73,810.77
	c7.23,2.49,13.54,4.78,19.95,6.72c0.76,0.2,2.9-1.43,3.05-2.44c1.99-11.05,3.66-22.14,5.45-33.24c-0.31-0.15-0.61-0.31-0.87-0.46
	C272.47,790.82,263.56,800.28,253.73,810.77z M450.26,762.11c4.38,2.19,8.35,4.33,12.47,6.21c1.32,0.61,3.46,1.27,4.22,0.66
	c0.97-0.76,1.48-2.9,1.22-4.33c-1.63-10.84-3.46-21.58-5.19-32.42c-0.31-0.05-0.56-0.1-0.87-0.2
	C458.26,741.95,454.34,751.83,450.26,762.11z M208.89,827.97c0.2-0.25,0.46-0.51,0.66-0.76c-11.05-8.35-22.14-16.7-34.05-25.76
	c0.66,4.53,0.25,8.2,1.78,10.84c1.99,3.46,4.84,7.43,8.3,8.81C192.96,824.21,201.05,825.79,208.89,827.97z M331.87,868.7
	c24.03,5.75,22.8,2.39,26.26-10.49C349.63,861.62,341.44,864.93,331.87,868.7z M363.48,860.35c-7.43,13.69-3.51,15.78,8.45,17.87
	C369.18,872.31,366.43,866.61,363.48,860.35z M335.89,874.4c-0.1,0.25-0.25,0.56-0.36,0.81c3.41,3,6.67,6.11,10.23,8.91
	c1.22,0.97,3,1.12,4.53,1.68c0.2-1.73,1.02-3.61,0.51-5.09c-0.87-2.29-1.88-4.68-5.34-4.68
	C342.25,876.03,339.05,874.96,335.89,874.4z M444.51,776.72c6.06-1.02,11.55-1.88,18.48-3.05c-5.7-2.8-9.98-4.84-14.56-7.08
	C447.06,770.2,445.94,773.15,444.51,776.72z M370.86,884.78c0-0.31,0.05-0.61,0.05-0.92c-1.43-0.61-2.85-1.48-4.33-1.68
	c-3-0.51-6.16-1.07-9.11-0.71c-0.92,0.1-1.48,3.16-2.19,4.89c1.37,0.25,2.85,0.92,4.17,0.71
	C363.27,886.51,367.04,885.59,370.86,884.78z M434.13,801.56c-1.17,4.53-1.99,7.64-2.85,10.99c4.12,0,7.23,0,11.1,0
	C439.63,808.84,437.33,805.78,434.13,801.56z M433.21,792.55c1.43-3.77,2.55-6.57,3.82-9.93c-3.46,0.61-6.36,1.12-9.93,1.73
	C429.34,787.31,431.02,789.6,433.21,792.55z"/>
<polyline class="st3" points="222.79,1171.55 214.58,1068.05 196.21,938.48 222.79,954.02 241.03,938.48 262.9,960.09 282.4,937.89 
	304.64,963.54 323.51,937.89 339.14,955.79 365.76,938.31 347.39,1067.92 339.14,1171.42 "/>
<linearGradient id="SVGID_3_" gradientUnits="userSpaceOnUse" x1="186.06" y1="1251.285" x2="377.68" y2="1251.285" gradientTransform="matrix(1 0 0 1 0 2)">
	<stop  offset="0" style="stop-color:#4457A6"/>
	<stop  offset="1" style="stop-color:#CB509D"/>
</linearGradient>
<polygon class="st4" points="377.68,1160.93 377.68,1295.85 342.34,1313.71 333.66,1329.68 320.14,1337.43 294.82,1345.64 
	268.92,1345.64 243.6,1337.43 230.04,1329.68 221.36,1313.71 186.06,1295.85 186.06,1160.93 222.79,1171.55 268.92,1174.45 
	294.82,1174.45 340.91,1171.55 "/>
<polyline class="st5" points="187.54,1201.12 222.79,1215.73 281.35,1222.47 340.28,1215.73 377.01,1199.35 "/>
<polyline class="st5" points="376,1230.56 339.26,1250.86 282.36,1259.58 225.45,1250.86 187.08,1229.65 "/>
<polyline class="st5" points="187.54,1261.49 225.45,1285.03 282.36,1292.44 339.26,1285.03 376,1262.95 "/>
<rect x="182.84" y="1197.18" width="6.96" height="75.06"/>
<rect x="373.91" y="1190.51" width="7.01" height="78.49"/>
<linearGradient id="SVGID_4_" gradientUnits="userSpaceOnUse" x1="1219.2076" y1="650.45" x2="1219.2076" y2="650.45" gradientTransform="matrix(-1 0 0 -1 1536.1277 2000)">
	<stop  offset="0" style="stop-color:#3953A4"/>
	<stop  offset="1" style="stop-color:#833293"/>
</linearGradient>
<path class="st6" d="M316.92,1349.55"/>
<g>
	<g>
		<g>
			
				<linearGradient id="SVGID_5_" gradientUnits="userSpaceOnUse" x1="659.01" y1="848.15" x2="1710.5544" y2="848.15" gradientTransform="matrix(1 0 0 1 0 2)">
				<stop  offset="0" style="stop-color:#4457A6"/>
				<stop  offset="1" style="stop-color:#CB509D"/>
			</linearGradient>
			<path class="st7" d="M682.97,896.05c1.19,0.73,2.28,1.61,3.37,2.54c3.06,3.16,4.61,6.95,4.61,11.3s-1.56,8.09-4.72,11.25
				s-6.89,4.72-11.25,4.72s-8.09-1.55-11.25-4.72c-3.16-3.16-4.72-6.89-4.72-11.25c0-4.35,1.61-8.14,4.77-11.3
				c0.93-0.93,2.02-1.81,3.16-2.54V758.53l15.91,15.91l71.69,71.69l55.78,55.31v-113.1c-1.19-0.73-2.23-1.66-3.16-2.7
				c-3.16-3.06-4.77-6.79-4.77-11.14s1.56-8.09,4.72-11.25c3.11-3.11,6.89-4.72,11.25-4.72c4.35,0,8.09,1.55,11.25,4.72
				c3.11,3.11,4.72,6.89,4.72,11.25c0,4.35-1.56,8.09-4.61,11.14c-1.09,1.09-2.18,1.97-3.37,2.7v153.43l-10.52-10.52v0.16
				l-61.17-61.84v0.47l-71.69-72.16L682.97,896.05L682.97,896.05z"/>
			
				<linearGradient id="SVGID_6_" gradientUnits="userSpaceOnUse" x1="659.0591" y1="844.335" x2="1710.6034" y2="844.335" gradientTransform="matrix(1 0 0 1 0 2)">
				<stop  offset="0" style="stop-color:#4457A6"/>
				<stop  offset="1" style="stop-color:#CB509D"/>
			</linearGradient>
			<path class="st8" d="M939.97,838.21c0.73-1.19,1.66-2.28,2.7-3.37c3.06-3.06,6.79-4.61,11.14-4.61s8.09,1.55,11.25,4.72
				c3.11,3.11,4.72,6.89,4.72,11.25s-1.55,8.09-4.72,11.25c-3.11,3.11-6.89,4.72-11.25,4.72c-4.35,0-8.09-1.61-11.14-4.77
				c-1.09-0.93-1.97-2.02-2.7-3.16h-81.75v79.67h113.62c0.73-1.19,1.66-2.28,2.7-3.37c3.06-3.06,6.79-4.61,11.14-4.61
				s8.09,1.56,11.25,4.72s4.72,6.89,4.72,11.25c0,4.35-1.55,8.09-4.72,11.25c-3.16,3.16-6.89,4.72-11.25,4.72
				c-4.35,0-8.09-1.61-11.14-4.77c-1.09-0.93-1.97-2.02-2.7-3.16H842.31V742.78h137.52c0.73-1.19,1.66-2.28,2.7-3.37
				c3.06-3.06,6.79-4.61,11.14-4.61c4.35,0,8.09,1.55,11.25,4.72c3.11,3.11,4.72,6.89,4.72,11.25s-1.56,8.09-4.72,11.25
				c-3.11,3.11-6.89,4.72-11.25,4.72c-4.35,0-8.09-1.61-11.14-4.77c-1.09-0.93-1.97-2.02-2.7-3.16H858.28v79.67h81.69L939.97,838.21
				L939.97,838.21z"/>
			
				<linearGradient id="SVGID_7_" gradientUnits="userSpaceOnUse" x1="659.0591" y1="828.25" x2="1710.6034" y2="828.25" gradientTransform="matrix(1 0 0 1 0 2)">
				<stop  offset="0" style="stop-color:#4457A6"/>
				<stop  offset="1" style="stop-color:#CB509D"/>
			</linearGradient>
			<path class="st9" d="M1017.52,740.55c-1.19-0.73-2.23-1.66-3.16-2.7c-3.16-3.06-4.77-6.79-4.77-11.14s1.55-8.09,4.72-11.25
				c3.16-3.16,6.89-4.72,11.25-4.72c4.35,0,8.09,1.56,11.25,4.72s4.72,6.89,4.72,11.25c0,4.35-1.56,8.09-4.61,11.14
				c-1.09,1.09-2.18,1.97-3.37,2.7v193.24H1161V788.34c-1.19-0.73-2.23-1.66-3.16-2.7c-3.16-3.06-4.77-6.79-4.77-11.14
				s1.55-8.09,4.72-11.25c3.11-3.11,6.89-4.72,11.25-4.72c4.35,0,8.09,1.55,11.25,4.72c3.11,3.11,4.72,6.89,4.72,11.25
				c0,4.35-1.56,8.09-4.61,11.14c-1.09,1.09-2.18,1.97-3.37,2.7v161.42h-159.34V740.55H1017.52z"/>
			
				<linearGradient id="SVGID_8_" gradientUnits="userSpaceOnUse" x1="659.03" y1="864.0699" x2="1710.53" y2="864.0699" gradientTransform="matrix(1 0 0 1 0 2)">
				<stop  offset="0" style="stop-color:#4457A6"/>
				<stop  offset="1" style="stop-color:#CB509D"/>
			</linearGradient>
			<path class="st10" d="M1208.74,927.88c1.19,0.73,2.28,1.61,3.37,2.54c3.06,3.16,4.61,6.95,4.61,11.3s-1.56,8.09-4.72,11.25
				c-3.16,3.16-6.89,4.72-11.25,4.72s-8.09-1.56-11.25-4.72s-4.72-6.89-4.72-11.25c0-4.35,1.61-8.14,4.77-11.3
				c0.93-0.93,2.02-1.81,3.16-2.54V742.57h159.34v47.79l-55.78,55.93l55.78,55.62v57.85c1.19,0.73,2.28,1.61,3.37,2.54
				c3.06,3.16,4.61,6.95,4.61,11.3s-1.56,8.09-4.72,11.25c-3.11,3.11-6.89,4.72-11.25,4.72c-4.35,0-8.09-1.55-11.25-4.72
				c-3.11-3.11-4.72-6.89-4.72-11.25c0-4.35,1.61-8.14,4.77-11.3c0.93-0.93,2.02-1.81,3.16-2.54v-49.87l-63.71-63.71l63.71-63.71
				v-23.9h-127.46v169.3h0.18V927.88z"/>
			
				<linearGradient id="SVGID_9_" gradientUnits="userSpaceOnUse" x1="659.0396" y1="856.115" x2="1710.5403" y2="856.115" gradientTransform="matrix(1 0 0 1 0 2)">
				<stop  offset="0" style="stop-color:#4457A6"/>
				<stop  offset="1" style="stop-color:#CB509D"/>
			</linearGradient>
			<path class="st11" d="M1384,927.88c1.19,0.73,2.28,1.61,3.37,2.54c3.06,3.16,4.61,6.95,4.61,11.3s-1.55,8.09-4.72,11.25
				s-6.89,4.72-11.25,4.72c-4.35,0-8.09-1.56-11.25-4.72s-4.72-6.89-4.72-11.25c0-4.35,1.61-8.14,4.77-11.3
				c0.93-0.93,2.02-1.81,3.16-2.54V806.33l79.67-79.67l79.67,79.67v153.43c1.19,0.73,2.28,1.61,3.37,2.54
				c3.06,3.16,4.61,6.95,4.61,11.3s-1.56,8.09-4.72,11.25c-3.11,3.11-6.89,4.72-11.25,4.72c-4.35,0-8.09-1.55-11.25-4.72
				c-3.11-3.11-4.72-6.89-4.72-11.25c0-4.35,1.61-8.14,4.77-11.3c0.93-0.93,2.02-1.81,3.16-2.54V814.93l-63.71-64.38l-63.71,64.38
				v112.95H1384z"/>
			
				<linearGradient id="SVGID_10_" gradientUnits="userSpaceOnUse" x1="659.0591" y1="828.22" x2="1710.6034" y2="828.22" gradientTransform="matrix(1 0 0 1 0 2)">
				<stop  offset="0" style="stop-color:#4457A6"/>
				<stop  offset="1" style="stop-color:#CB509D"/>
			</linearGradient>
			<path class="st12" d="M1543.29,740.55c-1.19-0.73-2.23-1.66-3.16-2.7c-3.16-3.06-4.77-6.79-4.77-11.14s1.55-8.09,4.72-11.25
				s6.89-4.72,11.25-4.72s8.09,1.56,11.25,4.72s4.72,6.89,4.72,11.25c0,4.35-1.56,8.09-4.61,11.14c-1.09,1.09-2.18,1.97-3.37,2.7
				v193.24h127.46v-25.97c-1.19-0.73-2.23-1.66-3.16-2.7c-3.16-3.06-4.77-6.79-4.77-11.14s1.56-8.09,4.72-11.25
				c3.11-3.11,6.89-4.72,11.25-4.72c4.35,0,8.09,1.55,11.25,4.72c3.11,3.11,4.72,6.89,4.72,11.25c0,4.35-1.56,8.09-4.61,11.14
				c-1.09,1.09-2.18,1.97-3.37,2.7v41.88h-159.34V740.55H1543.29z"/>
		</g>
	</g>
	<g>
		<g>
			
				<linearGradient id="SVGID_11_" gradientUnits="userSpaceOnUse" x1="566.08" y1="1146.05" x2="1992.0393" y2="1146.05" gradientTransform="matrix(1 0 0 1 0 2)">
				<stop  offset="0" style="stop-color:#4457A6"/>
				<stop  offset="1" style="stop-color:#CB509D"/>
			</linearGradient>
			<path class="st13" d="M627.71,1247.71c-0.73,1.19-1.61,2.23-2.54,3.16c-3.16,3.21-6.95,4.77-11.3,4.77s-8.09-1.56-11.25-4.72
				c-3.11-3.11-4.72-6.89-4.72-11.25c0-4.35,1.56-8.09,4.72-11.25c3.11-3.11,6.89-4.72,11.25-4.72s8.14,1.56,11.3,4.61
				c0.93,1.09,1.81,2.18,2.54,3.37h81.75v-79.67H566.08v-111.55h159.34v50.02c1.19,0.73,2.28,1.61,3.37,2.54
				c3.06,3.16,4.61,6.95,4.61,11.3c0,4.35-1.56,8.09-4.72,11.25c-3.11,3.11-6.89,4.72-11.25,4.72c-4.35,0-8.09-1.56-11.25-4.72
				c-3.11-3.11-4.72-6.89-4.72-11.25c0-4.35,1.61-8.14,4.77-11.3c0.93-0.93,2.02-1.81,3.16-2.54v-33.95H581.94v79.67h143.38v111.55
				h-97.61V1247.71z"/>
			
				<linearGradient id="SVGID_12_" gradientUnits="userSpaceOnUse" x1="566.0701" y1="1138.0801" x2="1992.0294" y2="1138.0801" gradientTransform="matrix(1 0 0 1 0 2)">
				<stop  offset="0" style="stop-color:#4457A6"/>
				<stop  offset="1" style="stop-color:#CB509D"/>
			</linearGradient>
			<path class="st14" d="M741.33,1094.27c-1.19-0.73-2.23-1.66-3.16-2.7c-3.16-3.06-4.77-6.79-4.77-11.14s1.56-8.09,4.72-11.25
				c3.11-3.11,6.89-4.72,11.25-4.72s8.09,1.55,11.25,4.72c3.11,3.11,4.72,6.89,4.72,11.25c0,4.35-1.56,8.09-4.61,11.14
				c-1.09,1.09-2.18,1.97-3.37,2.7v137.52h127.46v-175.26h-81.75c-0.73,1.19-1.61,2.23-2.54,3.16c-3.16,3.21-6.95,4.77-11.3,4.77
				s-8.09-1.56-11.25-4.72c-3.11-3.11-4.72-6.89-4.72-11.25s1.56-8.09,4.72-11.25c3.11-3.11,6.89-4.72,11.25-4.72
				s8.14,1.56,11.3,4.61c0.93,1.09,1.81,2.18,2.54,3.37h97.66v207.14H741.39v-153.38L741.33,1094.27L741.33,1094.27z"/>
			
				<linearGradient id="SVGID_13_" gradientUnits="userSpaceOnUse" x1="566.0712" y1="1126.2201" x2="1992.0308" y2="1126.2201" gradientTransform="matrix(1 0 0 1 0 2)">
				<stop  offset="0" style="stop-color:#4457A6"/>
				<stop  offset="1" style="stop-color:#CB509D"/>
			</linearGradient>
			<path class="st15" d="M916.59,1038.55c-1.19-0.73-2.23-1.66-3.16-2.7c-3.16-3.06-4.77-6.79-4.77-11.14s1.55-8.09,4.72-11.25
				c3.16-3.16,6.89-4.72,11.25-4.72s8.09,1.55,11.25,4.72c3.16,3.16,4.72,6.89,4.72,11.25c0,4.35-1.55,8.09-4.61,11.14
				c-1.09,1.09-2.18,1.97-3.37,2.7v193.24h127.46v-25.97c-1.19-0.73-2.23-1.66-3.16-2.7c-3.16-3.06-4.77-6.79-4.77-11.14
				s1.55-8.09,4.72-11.25c3.11-3.11,6.89-4.72,11.25-4.72c4.35,0,8.09,1.56,11.25,4.72c3.11,3.11,4.72,6.89,4.72,11.25
				c0,4.35-1.56,8.09-4.61,11.14c-1.09,1.09-2.18,1.97-3.37,2.7v41.88H916.75v-209.16h-0.16V1038.55z"/>
			
				<linearGradient id="SVGID_14_" gradientUnits="userSpaceOnUse" x1="566.0712" y1="1126.2501" x2="1992.0308" y2="1126.2501" gradientTransform="matrix(1 0 0 1 0 2)">
				<stop  offset="0" style="stop-color:#4457A6"/>
				<stop  offset="1" style="stop-color:#CB509D"/>
			</linearGradient>
			<path class="st16" d="M1091.85,1038.55c-1.19-0.73-2.23-1.66-3.16-2.7c-3.16-3.06-4.77-6.79-4.77-11.14s1.56-8.09,4.72-11.25
				c3.16-3.16,6.89-4.72,11.25-4.72s8.09,1.55,11.25,4.72c3.16,3.16,4.72,6.89,4.72,11.25c0,4.35-1.56,8.09-4.61,11.14
				c-1.09,1.09-2.18,1.97-3.37,2.7v193.24h127.46v-145.45c-1.19-0.73-2.23-1.66-3.16-2.7c-3.16-3.06-4.77-6.79-4.77-11.14
				s1.56-8.09,4.72-11.25c3.11-3.11,6.89-4.72,11.25-4.72c4.35,0,8.09,1.56,11.25,4.72c3.11,3.11,4.72,6.89,4.72,11.25
				c0,4.35-1.56,8.09-4.61,11.14c-1.09,1.09-2.18,1.97-3.37,2.7v161.42h-159.5v-209.21H1091.85z"/>
			
				<linearGradient id="SVGID_15_" gradientUnits="userSpaceOnUse" x1="566.0712" y1="1158.0452" x2="1992.0308" y2="1158.0452" gradientTransform="matrix(1 0 0 1 0 2)">
				<stop  offset="0" style="stop-color:#4457A6"/>
				<stop  offset="1" style="stop-color:#CB509D"/>
			</linearGradient>
			<path class="st17" d="M1354.71,1257.76c1.19,0.73,2.28,1.61,3.37,2.54c3.06,3.21,4.61,6.95,4.61,11.3
				c0,4.35-1.56,8.09-4.72,11.25c-3.11,3.11-6.89,4.72-11.25,4.72c-4.35,0-8.09-1.55-11.25-4.72c-3.16-3.16-4.72-6.89-4.72-11.25
				c0-4.35,1.61-8.14,4.77-11.3c0.93-0.93,2.02-1.81,3.16-2.54v-201.23h-49.87c-0.73,1.19-1.61,2.23-2.54,3.16
				c-3.16,3.21-6.95,4.77-11.3,4.77c-4.35,0-8.09-1.56-11.25-4.72c-3.11-3.11-4.72-6.89-4.72-11.25s1.56-8.09,4.72-11.25
				c3.11-3.11,6.89-4.72,11.25-4.72c4.35,0,8.14,1.56,11.3,4.61c0.93,1.09,1.81,2.18,2.54,3.37h115.65c0.73-1.19,1.66-2.28,2.7-3.37
				c3.06-3.06,6.79-4.61,11.14-4.61s8.09,1.56,11.25,4.72c3.11,3.11,4.72,6.89,4.72,11.25s-1.56,8.09-4.72,11.25
				c-3.11,3.11-6.89,4.72-11.25,4.72c-4.35,0-8.09-1.61-11.14-4.77c-1.09-0.93-1.97-2.02-2.7-3.16h-49.87v201.23H1354.71z"/>
			
				<linearGradient id="SVGID_16_" gradientUnits="userSpaceOnUse" x1="566.0712" y1="1146.155" x2="1992.0308" y2="1146.155" gradientTransform="matrix(1 0 0 1 0 2)">
				<stop  offset="0" style="stop-color:#4457A6"/>
				<stop  offset="1" style="stop-color:#CB509D"/>
			</linearGradient>
			<path class="st18" d="M1458.28,1257.76c1.19,0.73,2.28,1.61,3.37,2.54c3.06,3.21,4.61,6.95,4.61,11.3
				c0,4.35-1.56,8.09-4.72,11.25c-3.16,3.16-6.89,4.72-11.25,4.72s-8.09-1.55-11.25-4.72c-3.16-3.16-4.72-6.89-4.72-11.25
				c0-4.35,1.61-8.14,4.77-11.3c0.93-0.93,2.02-1.81,3.16-2.54v-219.21c-1.19-0.73-2.23-1.66-3.16-2.7
				c-3.16-3.06-4.77-6.79-4.77-11.14s1.55-8.09,4.72-11.25c3.16-3.16,6.89-4.72,11.25-4.72s8.09,1.55,11.25,4.72
				c3.16,3.16,4.72,6.89,4.72,11.25c0,4.35-1.56,8.09-4.61,11.14c-1.09,1.09-2.18,1.97-3.37,2.7V1257.76z"/>
			
				<linearGradient id="SVGID_17_" gradientUnits="userSpaceOnUse" x1="566.0712" y1="1138.0801" x2="1992.0308" y2="1138.0801" gradientTransform="matrix(1 0 0 1 0 2)">
				<stop  offset="0" style="stop-color:#4457A6"/>
				<stop  offset="1" style="stop-color:#CB509D"/>
			</linearGradient>
			<path class="st19" d="M1474.24,1094.27c-1.19-0.73-2.23-1.66-3.16-2.7c-3.16-3.06-4.77-6.79-4.77-11.14s1.56-8.09,4.72-11.25
				c3.11-3.11,6.89-4.72,11.25-4.72c4.35,0,8.09,1.55,11.25,4.72c3.11,3.11,4.72,6.89,4.72,11.25c0,4.35-1.55,8.09-4.61,11.14
				c-1.09,1.09-2.18,1.97-3.37,2.7v137.52h127.46v-175.26h-81.74c-0.73,1.19-1.61,2.23-2.54,3.16c-3.16,3.21-6.95,4.77-11.3,4.77
				c-4.35,0-8.09-1.56-11.25-4.72c-3.11-3.11-4.72-6.89-4.72-11.25s1.56-8.09,4.72-11.25c3.11-3.11,6.89-4.72,11.25-4.72
				s8.14,1.56,11.3,4.61c0.93,1.09,1.81,2.18,2.54,3.37h97.66v207.14h-159.34v-153.38L1474.24,1094.27L1474.24,1094.27z"/>
			
				<linearGradient id="SVGID_18_" gradientUnits="userSpaceOnUse" x1="566.0712" y1="1146.135" x2="1992.0308" y2="1146.135" gradientTransform="matrix(1 0 0 1 0 2)">
				<stop  offset="0" style="stop-color:#4457A6"/>
				<stop  offset="1" style="stop-color:#CB509D"/>
			</linearGradient>
			<path class="st20" d="M1665.41,1194.01c1.19,0.73,2.28,1.61,3.37,2.54c3.06,3.16,4.61,6.95,4.61,11.3
				c0,4.35-1.55,8.09-4.72,11.25c-3.11,3.16-6.89,4.72-11.25,4.72s-8.09-1.56-11.25-4.72c-3.11-3.11-4.72-6.89-4.72-11.25
				c0-4.35,1.61-8.14,4.77-11.3c0.93-0.93,2.02-1.81,3.16-2.54v-137.52l15.91,15.91l71.69,71.69l55.78,55.31v-113.05
				c-1.19-0.73-2.23-1.66-3.16-2.7c-3.16-3.06-4.77-6.79-4.77-11.14s1.55-8.09,4.72-11.25c3.11-3.11,6.89-4.72,11.25-4.72
				s8.09,1.56,11.25,4.72c3.11,3.11,4.72,6.89,4.72,11.25c0,4.35-1.56,8.09-4.61,11.14c-1.09,1.09-2.18,1.97-3.37,2.7v153.43
				l-10.52-10.52v0.16l-61.17-61.79v0.47l-71.69-72.16L1665.41,1194.01L1665.41,1194.01z"/>
			
				<linearGradient id="SVGID_19_" gradientUnits="userSpaceOnUse" x1="566.0712" y1="1146.05" x2="1992.0308" y2="1146.05" gradientTransform="matrix(1 0 0 1 0 2)">
				<stop  offset="0" style="stop-color:#4457A6"/>
				<stop  offset="1" style="stop-color:#CB509D"/>
			</linearGradient>
			<path class="st21" d="M1886.39,1247.71c-0.73,1.19-1.61,2.23-2.54,3.16c-3.16,3.21-6.95,4.77-11.3,4.77
				c-4.35,0-8.09-1.56-11.25-4.72c-3.11-3.11-4.72-6.89-4.72-11.25c0-4.35,1.55-8.09,4.72-11.25c3.11-3.11,6.89-4.72,11.25-4.72
				c4.35,0,8.14,1.56,11.3,4.61c0.93,1.09,1.81,2.18,2.54,3.37h81.75v-79.67h-143.38v-111.55h159.34v50.02
				c1.19,0.73,2.28,1.61,3.37,2.54c3.06,3.16,4.61,6.95,4.61,11.3c0,4.35-1.55,8.09-4.72,11.25c-3.11,3.11-6.89,4.72-11.25,4.72
				c-4.35,0-8.09-1.56-11.25-4.72c-3.11-3.11-4.72-6.89-4.72-11.25c0-4.35,1.61-8.14,4.77-11.3c0.93-0.93,2.02-1.81,3.16-2.54
				v-33.95h-127.46v79.67H1984v111.55h-97.61V1247.71z"/>
		</g>
	</g>
</g>
</svg>
