<?xml version="1.0" encoding="utf-8"?>
<!-- Generator: Adobe Illustrator 24.3.0, SVG Export Plug-In . SVG Version: 6.00 Build 0)  -->
<svg version="1.1" id="Layer_1" xmlns="http://www.w3.org/2000/svg" xmlns:xlink="http://www.w3.org/1999/xlink" x="0px" y="0px"
	 viewBox="0 0 1000 1000" style="enable-background:new 0 0 1000 1000;" xml:space="preserve">
<style type="text/css">
	.st0{fill:url(#SVGID_1_);}
	.st1{fill:url(#SVGID_2_);}
	.st2{fill:#FFFFFF;}
	.st3{fill:url(#SVGID_3_);}
	.st4{fill:url(#SVGID_4_);}
	.st5{fill:none;stroke:#000000;stroke-width:7;stroke-miterlimit:10;}
	.st6{fill:none;stroke:#000000;stroke-width:4;stroke-miterlimit:10;}
	.st7{fill:none;stroke:#000000;stroke-width:2.5;stroke-miterlimit:10;}
</style>
<g id="XMLID_1_">
	<g>
		<linearGradient id="SVGID_1_" gradientUnits="userSpaceOnUse" x1="12.3457" y1="254.6645" x2="987.6543" y2="254.6645">
			<stop  offset="0" style="stop-color:#4457A6"/>
			<stop  offset="1" style="stop-color:#CB509D"/>
		</linearGradient>
		<path class="st0" d="M932.08,347.62c-287.97,0-575.95,0-863.92-0.07c-6.77,0-13.78,0-20.26-1.63
			c-19.61-4.88-34.84-22.43-35.16-42.87c-0.72-46.67-0.22-93.34-0.22-141.35c239.46,0,477.87,0,717.36,0
			c0.14,3.69,0.47,7.31,0.47,10.93c0.04,28.94,0,57.92,0.04,86.9c0.04,15.56,6.19,24.85,16.53,25.25
			c10.74,0.36,17.51-9.3,17.55-25.29c0.07-28.62,0.04-57.27,0.04-85.89c0-3.69,0-7.38,0-11.79c14.25,0,27.64,0,42.4,0
			c0,3.98,0,7.63,0,11.32c0,28.25-0.04,56.55,0.04,84.84c0,4.09-0.07,8.25,0.72,12.23c1.63,8.07,6.37,13.82,14.98,14.4
			c8.68,0.58,14.07-4.59,16.39-12.59c1.09-3.83,1.34-8.03,1.34-12.05c0.11-32.34,0.07-64.72,0.07-97.97c48.98,0,97.46,0,146.59,0
			c0.18,2.39,0.54,4.67,0.54,6.98c0.04,43.27,0.18,86.54-0.04,129.84c-0.11,27.6-19.79,47.65-47.28,48.73
			C937.54,347.66,934.83,347.62,932.08,347.62z"/>
		<linearGradient id="SVGID_2_" gradientUnits="userSpaceOnUse" x1="85.1272" y1="611.7341" x2="914.7471" y2="611.7341">
			<stop  offset="0" style="stop-color:#4457A6"/>
			<stop  offset="1" style="stop-color:#CB509D"/>
		</linearGradient>
		<path class="st1" d="M914.13,385.17c7.05,154.37-46.49,280.77-171.23,373.21c-132.99,98.58-314.67,107.01-456.09,19.43
			c-144.6-89.58-207.33-223.4-201.29-392.63C362.5,385.17,637.74,385.17,914.13,385.17z M384.68,588.38
			c0.14,63.35,51.73,114.76,115.26,114.79c63.56,0.07,115.19-51.15,115.48-114.57c0.29-63.82-51.52-115.95-115.26-115.99
			C436.37,472.58,384.49,524.56,384.68,588.38z"/>
		<path class="st2" d="M599.86,588.27c0,0-60.78,43.81-98.87,43.81c-38.2-0.04-100.97-43.81-100.97-43.81s63.17-44.57,100.97-44.57
			C538.83,543.74,599.86,588.27,599.86,588.27z M505.98,619.38c19.93-3.29,33.79-19.86,30.93-36.97
			c-2.82-17.08-21.27-28.29-41.21-24.96c-19.9,3.29-33.75,19.86-30.9,36.94C467.63,611.5,486.08,622.68,505.98,619.38z"/>
		<linearGradient id="SVGID_3_" gradientUnits="userSpaceOnUse" x1="464.8105" y1="594.3961" x2="536.9139" y2="582.4311">
			<stop  offset="0" style="stop-color:#5A50A1"/>
			<stop  offset="0.4994" style="stop-color:#4556A6"/>
			<stop  offset="1" style="stop-color:#5E75B9"/>
		</linearGradient>
		<path class="st3" d="M536.91,582.41c2.86,17.11-11,33.68-30.93,36.97c-19.9,3.29-38.35-7.89-41.17-25
			c-2.86-17.08,11-33.65,30.9-36.94C515.64,554.12,534.09,565.34,536.91,582.41z"/>
		<linearGradient id="SVGID_4_" gradientUnits="userSpaceOnUse" x1="384.6753" y1="587.8925" x2="615.417" y2="587.8925">
			<stop  offset="0" style="stop-color:#5A50A1"/>
			<stop  offset="0.4994" style="stop-color:#4556A6"/>
			<stop  offset="1" style="stop-color:#5E75B9"/>
		</linearGradient>
		<path class="st4" d="M499.94,703.17c-63.53-0.04-115.12-51.44-115.26-114.79c-0.18-63.82,51.7-115.8,115.48-115.77
			c63.74,0.04,115.55,52.17,115.26,115.99C615.13,652.02,563.5,703.24,499.94,703.17z M500.99,632.08
			c38.09,0,98.87-43.81,98.87-43.81s-61.03-44.53-98.87-44.57c-37.81,0-100.97,44.57-100.97,44.57S462.78,632.05,500.99,632.08z"/>
	</g>
	<g>
		<path class="st5" d="M85.52,385.17c276.97,0,552.21,0,828.61,0c7.05,154.37-46.49,280.77-171.23,373.21
			c-132.99,98.58-314.67,107.01-456.09,19.43C142.21,688.23,79.48,554.41,85.52,385.17z"/>
		<path class="st5" d="M615.42,588.6c0.29-63.82-51.52-115.95-115.26-115.99c-63.78-0.04-115.66,51.95-115.48,115.77
			c0.14,63.35,51.73,114.76,115.26,114.79C563.5,703.24,615.13,652.02,615.42,588.6z"/>
		<path class="st5" d="M987.57,168.98c0.04,43.27,0.18,86.54-0.04,129.84c-0.11,27.6-19.79,47.65-47.28,48.73
			c-2.71,0.11-5.43,0.07-8.18,0.07c-287.97,0-575.95,0-863.92-0.07c-6.77,0-13.78,0-20.26-1.63c-19.61-4.88-34.84-22.43-35.16-42.87
			c-0.72-46.67-0.22-93.34-0.22-141.35c239.46,0,477.87,0,717.36,0c0.14,3.69,0.47,7.31,0.47,10.93c0.04,28.94,0,57.92,0.04,86.9
			c0.04,15.56,6.19,24.85,16.53,25.25c10.74,0.36,17.51-9.3,17.55-25.29c0.07-28.62,0.04-57.27,0.04-85.89c0-3.69,0-7.38,0-11.79
			c14.25,0,27.64,0,42.4,0c0,3.98,0,7.63,0,11.32c0,28.25-0.04,56.55,0.04,84.84c0,4.09-0.07,8.25,0.72,12.23
			c1.63,8.07,6.37,13.82,14.98,14.4c8.68,0.58,14.07-4.59,16.39-12.59c1.09-3.83,1.34-8.03,1.34-12.05
			c0.11-32.34,0.07-64.72,0.07-97.97c48.98,0,97.46,0,146.59,0C987.21,164.38,987.57,166.66,987.57,168.98z"/>
		<path class="st6" d="M500.99,543.7c-37.81,0-100.97,44.57-100.97,44.57s62.77,43.77,100.97,43.81c38.09,0,98.87-43.81,98.87-43.81
			S538.83,543.74,500.99,543.7z"/>
		<path class="st7" d="M536.91,582.41c-2.82-17.08-21.27-28.29-41.21-24.96c-19.9,3.29-33.75,19.86-30.9,36.94
			c2.82,17.11,21.27,28.29,41.17,25C525.91,616.09,539.77,599.52,536.91,582.41z"/>
	</g>
</g>
</svg>
