<svg width="260" height="132" viewBox="0 0 260 132" fill="none" xmlns="http://www.w3.org/2000/svg">
<path d="M77.4 19.6L60.408 70H54.792L40.032 27.016L25.2 70H19.656L2.664 19.6H8.136L22.68 62.944L37.728 19.6H42.696L57.528 63.16L72.288 19.6H77.4ZM87.1689 19.6H92.4969V70H87.1689V19.6ZM151.016 19.6V70H146.624L114.224 29.104V70H108.896V19.6H113.288L145.76 60.496V19.6H151.016ZM202.962 44.8H208.074V64.024C205.722 66.088 202.938 67.672 199.722 68.776C196.506 69.88 193.122 70.432 189.57 70.432C184.53 70.432 179.994 69.328 175.962 67.12C171.93 64.912 168.762 61.864 166.458 57.976C164.154 54.04 163.002 49.648 163.002 44.8C163.002 39.952 164.154 35.584 166.458 31.696C168.762 27.76 171.93 24.688 175.962 22.48C179.994 20.272 184.554 19.168 189.642 19.168C193.482 19.168 197.01 19.792 200.226 21.04C203.442 22.24 206.154 24.04 208.362 26.44L205.05 29.824C201.066 25.888 196.002 23.92 189.858 23.92C185.778 23.92 182.082 24.832 178.77 26.656C175.506 28.432 172.938 30.928 171.066 34.144C169.194 37.312 168.258 40.864 168.258 44.8C168.258 48.736 169.194 52.288 171.066 55.456C172.938 58.624 175.506 61.12 178.77 62.944C182.034 64.768 185.706 65.68 189.786 65.68C194.97 65.68 199.362 64.384 202.962 61.792V44.8ZM237.049 70.432C233.305 70.432 229.705 69.832 226.249 68.632C222.841 67.432 220.201 65.848 218.329 63.88L220.417 59.776C222.241 61.6 224.665 63.088 227.689 64.24C230.713 65.344 233.833 65.896 237.049 65.896C241.561 65.896 244.945 65.08 247.201 63.448C249.457 61.768 250.585 59.608 250.585 56.968C250.585 54.952 249.961 53.344 248.713 52.144C247.513 50.944 246.025 50.032 244.249 49.408C242.473 48.736 240.001 48.016 236.833 47.248C233.041 46.288 230.017 45.376 227.761 44.512C225.505 43.6 223.561 42.232 221.929 40.408C220.345 38.584 219.553 36.112 219.553 32.992C219.553 30.448 220.225 28.144 221.569 26.08C222.913 23.968 224.977 22.288 227.761 21.04C230.545 19.792 234.001 19.168 238.129 19.168C241.009 19.168 243.817 19.576 246.553 20.392C249.337 21.16 251.737 22.24 253.753 23.632L251.953 27.88C249.841 26.488 247.585 25.456 245.185 24.784C242.785 24.064 240.433 23.704 238.129 23.704C233.713 23.704 230.377 24.568 228.121 26.296C225.913 27.976 224.809 30.16 224.809 32.848C224.809 34.864 225.409 36.496 226.609 37.744C227.857 38.944 229.393 39.88 231.217 40.552C233.089 41.176 235.585 41.872 238.705 42.64C242.401 43.552 245.377 44.464 247.633 45.376C249.937 46.24 251.881 47.584 253.465 49.408C255.049 51.184 255.841 53.608 255.841 56.68C255.841 59.224 255.145 61.552 253.753 63.664C252.409 65.728 250.321 67.384 247.489 68.632C244.657 69.832 241.177 70.432 237.049 70.432Z" fill="url(#paint0_linear)"/>
<path d="M56.736 76.2H58.512V91.464H67.92V93H56.736V76.2ZM81.3133 87.216H70.7533C70.8493 88.528 71.3533 89.592 72.2653 90.408C73.1773 91.208 74.3293 91.608 75.7213 91.608C76.5053 91.608 77.2253 91.472 77.8813 91.2C78.5373 90.912 79.1053 90.496 79.5853 89.952L80.5453 91.056C79.9853 91.728 79.2813 92.24 78.4333 92.592C77.6013 92.944 76.6813 93.12 75.6733 93.12C74.3773 93.12 73.2253 92.848 72.2173 92.304C71.2253 91.744 70.4493 90.976 69.8893 90C69.3293 89.024 69.0493 87.92 69.0493 86.688C69.0493 85.456 69.3133 84.352 69.8413 83.376C70.3853 82.4 71.1213 81.64 72.0493 81.096C72.9933 80.552 74.0493 80.28 75.2173 80.28C76.3853 80.28 77.4333 80.552 78.3613 81.096C79.2893 81.64 80.0173 82.4 80.5453 83.376C81.0733 84.336 81.3373 85.44 81.3373 86.688L81.3133 87.216ZM75.2173 81.744C74.0013 81.744 72.9773 82.136 72.1453 82.92C71.3293 83.688 70.8653 84.696 70.7533 85.944H79.7053C79.5933 84.696 79.1213 83.688 78.2893 82.92C77.4733 82.136 76.4493 81.744 75.2173 81.744ZM91.4537 92.232C91.1337 92.52 90.7337 92.744 90.2537 92.904C89.7897 93.048 89.3017 93.12 88.7897 93.12C87.6057 93.12 86.6937 92.8 86.0537 92.16C85.4137 91.52 85.0937 90.616 85.0937 89.448V81.816H82.8377V80.376H85.0937V77.616H86.7977V80.376H90.6377V81.816H86.7977V89.352C86.7977 90.104 86.9817 90.68 87.3497 91.08C87.7337 91.464 88.2777 91.656 88.9817 91.656C89.3337 91.656 89.6697 91.6 89.9897 91.488C90.3257 91.376 90.6137 91.216 90.8537 91.008L91.4537 92.232ZM116.581 80.28C118.165 80.28 119.405 80.736 120.301 81.648C121.213 82.56 121.669 83.904 121.669 85.68V93H119.965V85.848C119.965 84.536 119.645 83.536 119.005 82.848C118.381 82.16 117.493 81.816 116.341 81.816C115.029 81.816 113.997 82.224 113.245 83.04C112.493 83.84 112.117 84.952 112.117 86.376V93H110.413V85.848C110.413 84.536 110.093 83.536 109.453 82.848C108.829 82.16 107.933 81.816 106.765 81.816C105.469 81.816 104.437 82.224 103.669 83.04C102.917 83.84 102.541 84.952 102.541 86.376V93H100.837V80.376H102.469V82.68C102.917 81.912 103.541 81.32 104.341 80.904C105.141 80.488 106.061 80.28 107.101 80.28C108.157 80.28 109.069 80.504 109.837 80.952C110.621 81.4 111.205 82.064 111.589 82.944C112.053 82.112 112.717 81.464 113.581 81C114.461 80.52 115.461 80.28 116.581 80.28ZM137.666 80.376V93H136.034V90.696C135.586 91.464 134.97 92.064 134.186 92.496C133.402 92.912 132.506 93.12 131.498 93.12C129.85 93.12 128.546 92.664 127.586 91.752C126.642 90.824 126.17 89.472 126.17 87.696V80.376H127.874V87.528C127.874 88.856 128.202 89.864 128.858 90.552C129.514 91.24 130.45 91.584 131.666 91.584C132.994 91.584 134.042 91.184 134.81 90.384C135.578 89.568 135.962 88.44 135.962 87V80.376H137.666ZM145.823 93.12C144.799 93.12 143.815 92.976 142.871 92.688C141.943 92.384 141.215 92.008 140.687 91.56L141.455 90.216C141.983 90.632 142.647 90.976 143.447 91.248C144.247 91.504 145.079 91.632 145.943 91.632C147.095 91.632 147.943 91.456 148.487 91.104C149.047 90.736 149.327 90.224 149.327 89.568C149.327 89.104 149.175 88.744 148.871 88.488C148.567 88.216 148.183 88.016 147.719 87.888C147.255 87.744 146.639 87.608 145.871 87.48C144.847 87.288 144.023 87.096 143.399 86.904C142.775 86.696 142.239 86.352 141.791 85.872C141.359 85.392 141.143 84.728 141.143 83.88C141.143 82.824 141.583 81.96 142.463 81.288C143.343 80.616 144.567 80.28 146.135 80.28C146.951 80.28 147.767 80.392 148.583 80.616C149.399 80.824 150.071 81.104 150.599 81.456L149.855 82.824C148.815 82.104 147.575 81.744 146.135 81.744C145.047 81.744 144.223 81.936 143.663 82.32C143.119 82.704 142.847 83.208 142.847 83.832C142.847 84.312 142.999 84.696 143.303 84.984C143.623 85.272 144.015 85.488 144.479 85.632C144.943 85.76 145.583 85.896 146.398 86.04C147.407 86.232 148.215 86.424 148.823 86.616C149.431 86.808 149.951 87.136 150.383 87.6C150.815 88.064 151.031 88.704 151.031 89.52C151.031 90.624 150.567 91.504 149.639 92.16C148.727 92.8 147.455 93.12 145.823 93.12ZM154.181 80.376H155.885V93H154.181V80.376ZM155.045 77.616C154.693 77.616 154.397 77.496 154.157 77.256C153.917 77.016 153.797 76.728 153.797 76.392C153.797 76.072 153.917 75.792 154.157 75.552C154.397 75.312 154.693 75.192 155.045 75.192C155.397 75.192 155.693 75.312 155.933 75.552C156.173 75.776 156.293 76.048 156.293 76.368C156.293 76.72 156.173 77.016 155.933 77.256C155.693 77.496 155.397 77.616 155.045 77.616ZM165.858 93.12C164.61 93.12 163.49 92.848 162.498 92.304C161.522 91.76 160.754 91 160.194 90.024C159.634 89.032 159.354 87.92 159.354 86.688C159.354 85.456 159.634 84.352 160.194 83.376C160.754 82.4 161.522 81.64 162.498 81.096C163.49 80.552 164.61 80.28 165.858 80.28C166.946 80.28 167.914 80.496 168.762 80.928C169.626 81.344 170.306 81.96 170.802 82.776L169.53 83.64C169.114 83.016 168.586 82.552 167.946 82.248C167.306 81.928 166.61 81.768 165.858 81.768C164.946 81.768 164.122 81.976 163.386 82.392C162.666 82.792 162.098 83.368 161.682 84.12C161.282 84.872 161.082 85.728 161.082 86.688C161.082 87.664 161.282 88.528 161.682 89.28C162.098 90.016 162.666 90.592 163.386 91.008C164.122 91.408 164.946 91.608 165.858 91.608C166.61 91.608 167.306 91.456 167.946 91.152C168.586 90.848 169.114 90.384 169.53 89.76L170.802 90.624C170.306 91.44 169.626 92.064 168.762 92.496C167.898 92.912 166.93 93.12 165.858 93.12ZM184.607 76.512C183.871 76.512 183.311 76.712 182.927 77.112C182.559 77.512 182.375 78.104 182.375 78.888V80.376H186.263V81.816H182.423V93H180.719V81.816H178.463V80.376H180.719V78.816C180.719 77.664 181.047 76.752 181.703 76.08C182.375 75.408 183.319 75.072 184.535 75.072C185.015 75.072 185.479 75.144 185.927 75.288C186.375 75.416 186.751 75.608 187.055 75.864L186.479 77.136C185.983 76.72 185.359 76.512 184.607 76.512ZM188.567 75.192H190.271V93H188.567V75.192ZM205.64 80.376L199.328 94.512C198.816 95.696 198.224 96.536 197.552 97.032C196.88 97.528 196.072 97.776 195.128 97.776C194.52 97.776 193.952 97.68 193.424 97.488C192.896 97.296 192.44 97.008 192.056 96.624L192.848 95.352C193.488 95.992 194.256 96.312 195.152 96.312C195.728 96.312 196.216 96.152 196.616 95.832C197.032 95.512 197.416 94.968 197.768 94.2L198.32 92.976L192.68 80.376H194.456L199.208 91.104L203.96 80.376H205.64Z" fill="#A9EAFF"/>
<defs>
<linearGradient id="paint0_linear" x1="4.97608" y1="44" x2="260" y2="44" gradientUnits="userSpaceOnUse">
<stop stop-color="#A9EAFF"/>
<stop offset="1" stop-color="white"/>
</linearGradient>
</defs>
</svg>
