<svg width="106" height="125" viewBox="0 0 106 125" fill="none" xmlns="http://www.w3.org/2000/svg">
<g clip-path="url(#clip0)">
<path d="M41.91 14.28C49.1565 14.2576 56.2341 16.4678 62.1801 20.61C62.6901 20.97 62.59 21.11 62.23 21.47C58.0234 25.6566 53.8267 29.8566 49.64 34.07C49.5143 34.2365 49.3317 34.351 49.127 34.3915C48.9223 34.4321 48.7098 34.396 48.53 34.29C46.2585 33.2782 43.7848 32.8027 41.3 32.9C37.492 33.041 33.8462 34.4778 30.9658 36.9727C28.0854 39.4676 26.143 42.871 25.4601 46.62C24.9627 48.9297 24.9734 51.3199 25.4914 53.625C26.0094 55.9302 27.0224 58.0951 28.4601 59.97C30.0826 62.0728 32.1844 63.7571 34.5902 64.8826C36.996 66.0081 39.636 66.542 42.29 66.44C46.1096 66.4864 49.8172 65.1511 52.73 62.68C53.5546 61.9972 54.2725 61.195 54.86 60.3C55.1986 59.7699 55.4275 59.1774 55.5333 58.5574C55.6391 57.9374 55.6197 57.3025 55.4761 56.6901C55.3326 56.0777 55.0679 55.5003 54.6976 54.9919C54.3273 54.4835 53.8589 54.0544 53.32 53.73C53.1313 53.6233 52.9659 53.4798 52.8336 53.308C52.7014 53.1363 52.605 52.9397 52.55 52.73C52.24 51.86 51.96 50.98 51.55 50.14C51.4245 49.9236 51.3846 49.668 51.4383 49.4236C51.492 49.1792 51.6353 48.9638 51.84 48.82C60.66 40.0266 69.47 31.2233 78.2701 22.41C84.6434 16.0433 91.0067 9.66998 97.36 3.28998C97.85 2.79998 98.11 2.80998 98.54 3.28998C99.1136 3.9452 99.7317 4.56 100.39 5.12998C100.95 5.59998 100.81 5.86998 100.39 6.31998C96.07 10.61 91.8401 14.98 87.4601 19.2C82.682 23.6929 79.4683 29.598 78.29 36.05C77.8654 38.3628 77.5948 40.7013 77.48 43.05C77.32 45.79 77.48 48.54 77.3 51.28C77.1087 55.9577 75.9807 60.5495 73.9831 64.7836C71.9854 69.0176 69.1587 72.8079 65.67 75.93C60.779 80.5115 54.6347 83.5332 48.0201 84.61C42.7641 85.5851 37.3536 85.3277 32.2141 83.858C27.0745 82.3883 22.3458 79.7464 18.4 76.14C12.2359 70.8384 8.18875 63.493 7.00005 55.45C5.51196 46.3073 7.6563 36.9451 12.9754 29.3616C18.2945 21.7781 26.367 16.574 35.47 14.86C37.5904 14.4414 39.749 14.247 41.91 14.28V14.28Z" fill="url(#paint0_linear)"/>
<path d="M52.1201 46.2C51.3201 44.75 51.3201 44.75 52.2901 43.79C65.9501 30.13 79.6168 16.4633 93.2901 2.78999C93.7401 2.33999 93.9801 2.22001 94.5001 2.74001C95.0201 3.26001 94.6801 3.51001 94.3501 3.84001C89.3701 8.80668 84.3934 13.7833 79.4201 18.77L52.6701 45.51C52.4717 45.7275 52.2879 45.9581 52.1201 46.2Z" fill="url(#paint1_linear)"/>
<path d="M50.61 42.82C49.91 41.46 49.91 41.46 50.93 40.44C63.7033 27.6733 76.49 14.9 89.29 2.12001C89.64 1.77001 89.88 1.39999 90.43 1.97999C90.98 2.55999 90.85 2.68001 90.43 3.12001C81.0967 12.4 71.8 21.69 62.54 30.99L51.29 42.23C51.04 42.43 50.83 42.61 50.61 42.82Z" fill="url(#paint2_linear)"/>
<path d="M49.18 39.61C48.52 38.13 48.52 38.13 49.57 37.07C61.3833 25.2833 73.1967 13.4633 85.01 1.61001C85.42 1.21001 85.67 0.940015 86.22 1.52001C86.77 2.10001 86.59 2.25001 86.16 2.67001C75.8267 12.9833 65.4933 23.3 55.16 33.62L49.81 38.97L49.18 39.61Z" fill="url(#paint3_linear)"/>
<path d="M101.94 10.77C102.364 10.7731 102.783 10.863 103.171 11.034C103.56 11.2051 103.909 11.4538 104.197 11.7648C104.486 12.0757 104.707 12.4424 104.849 12.8423C104.99 13.2422 105.049 13.6668 105.02 14.09C104.971 14.9293 104.593 15.7152 103.967 16.277C103.342 16.8388 102.52 17.131 101.68 17.09C100.839 17.0434 100.05 16.6703 99.48 16.0501C98.9103 15.4299 98.6053 14.6118 98.6301 13.77C98.6741 12.9343 99.0468 12.1499 99.6668 11.5879C100.287 11.0259 101.104 10.7319 101.94 10.77V10.77Z" fill="url(#paint4_linear)"/>
<path d="M95.5899 23.32C94.7476 23.3073 93.943 22.9691 93.3446 22.3763C92.7462 21.7835 92.4005 20.9821 92.3799 20.14C92.4143 19.2997 92.7636 18.5031 93.3583 17.9084C93.953 17.3137 94.7496 16.9644 95.5899 16.93C96.0144 16.93 96.4348 17.0139 96.8268 17.177C97.2187 17.3401 97.5746 17.579 97.8739 17.8802C98.1731 18.1813 98.4099 18.5386 98.5706 18.9316C98.7312 19.3246 98.8125 19.7455 98.8099 20.17C98.806 20.5885 98.7195 21.002 98.5554 21.387C98.3914 21.772 98.1529 22.1208 97.8538 22.4134C97.5546 22.7061 97.2007 22.9368 96.8122 23.0924C96.4237 23.2479 96.0083 23.3253 95.5899 23.32Z" fill="url(#paint5_linear)"/>
<path d="M92.5501 26.31C92.56 26.9377 92.3832 27.5542 92.0423 28.0814C91.7013 28.6085 91.2116 29.0226 90.635 29.271C90.0585 29.5195 89.4212 29.5912 88.8038 29.477C88.1865 29.3628 87.617 29.0678 87.1675 28.6296C86.718 28.1913 86.4087 27.6294 86.2789 27.0152C86.1491 26.401 86.2047 25.762 86.4384 25.1794C86.6722 24.5968 87.0737 24.0966 87.5921 23.7425C88.1105 23.3883 88.7223 23.196 89.3501 23.19C89.7679 23.1737 90.1847 23.2426 90.575 23.3926C90.9654 23.5425 91.3211 23.7704 91.6205 24.0624C91.9199 24.3543 92.1567 24.7041 92.3166 25.0905C92.4764 25.477 92.5558 25.8919 92.5501 26.31Z" fill="url(#paint6_linear)"/>
<path d="M33.8974 1.64602C33.6143 0.475793 32.4383 -0.243901 31.2707 0.0385566C30.1032 0.321014 29.3862 1.49866 29.6694 2.66889L31.7151 11.1249C31.9982 12.2952 33.1742 13.0148 34.3417 12.7324C35.5092 12.4499 36.2262 11.2723 35.9431 10.1021L33.8974 1.64602Z" fill="url(#paint7_linear)"/>
<path d="M16.8474 7.30421C16.2051 6.28586 14.8608 5.97979 13.8448 6.6206C12.8288 7.26141 12.5258 8.60644 13.1681 9.62479L17.8092 16.9834C18.4515 18.0018 19.7958 18.3078 20.8119 17.667C21.8279 17.0262 22.1309 15.6812 21.4886 14.6628L16.8474 7.30421Z" fill="url(#paint8_linear)"/>
<path d="M3.60137 18.6852C2.68886 17.8998 1.31385 18.0011 0.53022 18.9115C-0.253411 19.8219 -0.148923 21.1967 0.763582 21.9821L7.35736 27.6577C8.26986 28.4431 9.64485 28.3418 10.4285 27.4314C11.2121 26.521 11.1076 25.1462 10.1951 24.3608L3.60137 18.6852Z" fill="url(#paint9_linear)"/>
<path d="M40.3099 10.76C41.5139 10.76 42.4899 9.78398 42.4899 8.58C42.4899 7.37602 41.5139 6.4 40.3099 6.4C39.1059 6.4 38.1299 7.37602 38.1299 8.58C38.1299 9.78398 39.1059 10.76 40.3099 10.76Z" fill="url(#paint10_linear)"/>
<path d="M25.68 14.33C26.884 14.33 27.86 13.354 27.86 12.15C27.86 10.946 26.884 9.97 25.68 9.97C24.476 9.97 23.5 10.946 23.5 12.15C23.5 13.354 24.476 14.33 25.68 14.33Z" fill="url(#paint11_linear)"/>
<path d="M13.7501 22.3C14.954 22.3 15.9301 21.324 15.9301 20.12C15.9301 18.916 14.954 17.94 13.7501 17.94C12.5461 17.94 11.5701 18.916 11.5701 20.12C11.5701 21.324 12.5461 22.3 13.7501 22.3Z" fill="url(#paint12_linear)"/>
<path d="M4.7801 34.27C5.98408 34.27 6.9601 33.294 6.9601 32.09C6.9601 30.886 5.98408 29.91 4.7801 29.91C3.57612 29.91 2.6001 30.886 2.6001 32.09C2.6001 33.294 3.57612 34.27 4.7801 34.27Z" fill="url(#paint13_linear)"/>
<path d="M38.07 37.7H41.7701L50.62 58.04H45.56L43.81 53.73H35.91L34.22 58.04H29.29L38.07 37.7ZM39.79 43.61L37.29 49.94H42.29L39.79 43.61Z" fill="url(#paint14_linear)"/>
<path d="M10.4 94.61H12.87L18.75 108.14H15.3901L14.2301 105.27H8.97005L7.84006 108.14H4.56006L10.4 94.61ZM11.5501 98.55L9.91005 102.75H13.2101L11.5501 98.55Z" fill="#231F20"/>
<path d="M20.23 94.61H23.23V105.39H28.75V108.14H20.25L20.23 94.61Z" fill="#231F20"/>
<path d="M30.49 94.61H33.49V105.39H39.01V108.14H30.51L30.49 94.61Z" fill="#231F20"/>
<path d="M40.75 94.61H49.94V97.36H43.73V99.88H49.6V102.61H43.73V105.36H50.29V108.11H40.75V94.61Z" fill="#231F20"/>
<path d="M64.93 107.16C64.0588 107.615 63.1305 107.951 62.17 108.16C61.2096 108.361 60.2311 108.461 59.25 108.46C58.2552 108.473 57.2662 108.307 56.33 107.97C55.4658 107.659 54.6758 107.172 54.01 106.54C53.3503 105.909 52.8322 105.146 52.49 104.3C51.7699 102.403 51.7699 100.307 52.49 98.41C52.8322 97.5641 53.3503 96.8005 54.01 96.17C54.6758 95.5376 55.4658 95.0506 56.33 94.74C57.2656 94.4 58.2546 94.2306 59.25 94.24C60.2637 94.2327 61.2735 94.3673 62.25 94.64C63.1439 94.8925 63.966 95.3515 64.65 95.98L62.55 98.28C62.1613 97.858 61.6921 97.5179 61.17 97.28C60.5603 97.0499 59.9114 96.9412 59.26 96.96C58.668 96.9534 58.0804 97.0621 57.53 97.28C57.028 97.4872 56.5749 97.7971 56.2 98.19C55.8243 98.5901 55.5349 99.0633 55.35 99.58C54.9629 100.708 54.9629 101.932 55.35 103.06C55.5374 103.573 55.8266 104.042 56.2 104.44C56.5749 104.833 57.028 105.143 57.53 105.35C58.0804 105.568 58.668 105.677 59.26 105.67C59.8279 105.683 60.3945 105.609 60.94 105.45C61.3321 105.342 61.7111 105.191 62.07 105V102.8H59.64V100.05H64.94L64.93 107.16Z" fill="#231F20"/>
<path d="M67.54 94.61H72.78C73.4519 94.6058 74.1223 94.6728 74.78 94.81C75.3584 94.926 75.9087 95.1535 76.4 95.48C76.8743 95.7952 77.2572 96.2298 77.51 96.74C77.8087 97.3629 77.9495 98.0498 77.92 98.74C77.944 99.6089 77.6842 100.462 77.1801 101.17C76.6456 101.862 75.8646 102.32 75 102.45L78.44 108.16H74.87L72.04 102.75H70.57V108.16H67.57L67.54 94.61ZM70.54 100.21H72.29H73.14C73.42 100.192 73.696 100.135 73.9601 100.04C74.1952 99.9436 74.4017 99.7887 74.56 99.59C74.7353 99.3389 74.8199 99.0356 74.8 98.73C74.8163 98.4415 74.743 98.1551 74.59 97.91C74.4552 97.7079 74.2688 97.5456 74.05 97.44C73.8176 97.3253 73.5674 97.2509 73.31 97.22C73.0351 97.1805 72.7578 97.1604 72.48 97.16H70.54V100.21Z" fill="#231F20"/>
<path d="M79.1999 101.35C79.1842 100.343 79.3713 99.3432 79.7499 98.41C80.0885 97.5622 80.6071 96.7979 81.2699 96.17C81.9336 95.5399 82.7199 95.0531 83.5799 94.74C84.5155 94.4 85.5045 94.2306 86.4999 94.24C87.4985 94.2316 88.4906 94.4009 89.4299 94.74C90.2898 95.0531 91.0761 95.5399 91.7399 96.17C92.4135 96.7949 92.9425 97.5594 93.2899 98.41C94.0099 100.307 94.0099 102.403 93.2899 104.3C92.9512 105.148 92.4326 105.912 91.7699 106.54C91.1061 107.17 90.3198 107.657 89.4599 107.97C88.52 108.306 87.5279 108.472 86.5299 108.46C85.5351 108.473 84.5461 108.307 83.6099 107.97C82.7499 107.657 81.9636 107.17 81.2999 106.54C80.6371 105.912 80.1185 105.148 79.7799 104.3C79.3902 103.366 79.1929 102.362 79.1999 101.35V101.35ZM82.2999 101.35C82.2944 101.946 82.3925 102.538 82.5899 103.1C82.7811 103.611 83.0698 104.079 83.4399 104.48C83.8169 104.87 84.2694 105.18 84.7699 105.39C85.3205 105.607 85.908 105.716 86.4999 105.71C87.0919 105.718 87.6797 105.609 88.2299 105.39C88.7319 105.183 89.1849 104.873 89.5599 104.48C89.9333 104.082 90.2224 103.613 90.4099 103.1C90.8095 101.974 90.8095 100.746 90.4099 99.62C90.2249 99.1033 89.9356 98.6301 89.5599 98.23C89.1849 97.8372 88.7319 97.5272 88.2299 97.32C87.6797 97.101 87.0919 96.9923 86.4999 97C85.908 96.9941 85.3205 97.1028 84.7699 97.32C84.2694 97.53 83.8169 97.8396 83.4399 98.23C83.0677 98.6328 82.7788 99.1052 82.5899 99.62C82.3908 100.175 82.2893 100.76 82.2899 101.35H82.2999Z" fill="#231F20"/>
<path d="M13.5 114.61H9.76996V124.61H8.43996V114.61H4.70996V113.36H13.5V114.61Z" fill="#231F20"/>
<path d="M17.04 113.37H19.92C20.4616 113.368 21.0028 113.402 21.54 113.47C22.0403 113.522 22.5276 113.66 22.98 113.88C23.3848 114.103 23.7283 114.422 23.98 114.81C24.2645 115.319 24.3997 115.898 24.37 116.48C24.3844 116.846 24.3264 117.211 24.1994 117.554C24.0724 117.897 23.8789 118.212 23.63 118.48C23.0657 119.033 22.3345 119.385 21.55 119.48L24.76 124.67H23.12L20.1 119.61H18.38V124.61H17.04V113.37ZM18.38 118.37H19.57H20.73C21.1049 118.353 21.4754 118.283 21.83 118.16C22.1491 118.056 22.4329 117.866 22.65 117.61C22.8904 117.307 23.0082 116.925 22.98 116.54C23.0026 116.19 22.919 115.842 22.7401 115.54C22.5864 115.296 22.3684 115.098 22.11 114.97C21.8369 114.834 21.5427 114.747 21.2401 114.71C20.9083 114.67 20.5743 114.65 20.2401 114.65H18.36L18.38 118.37Z" fill="#231F20"/>
<path d="M32.3899 113.37H33.6499L38.4499 124.65H36.8899L35.7399 121.88H30.0999L28.9399 124.61H27.4199L32.3899 113.37ZM32.9999 115.09L30.6299 120.61H35.2299L32.9999 115.09Z" fill="#231F20"/>
<path d="M41.9099 113.37H43.2899V124.61H41.9599L41.9099 113.37Z" fill="#231F20"/>
<path d="M48.01 113.37H49.7L56.23 122.74V113.37H57.57V124.61H55.88L49.35 115.24V124.61H48.02L48.01 113.37Z" fill="#231F20"/>
<path d="M62.3601 113.37H63.7001V124.61H62.3601V113.37Z" fill="#231F20"/>
<path d="M68.46 113.37H70.1499L76.68 122.74V113.37H78.02V124.61H76.33L69.8 115.24V124.61H68.46V113.37Z" fill="#231F20"/>
<path d="M92.4099 123.89C91.7654 124.245 91.0758 124.511 90.3599 124.68C89.6459 124.851 88.9142 124.939 88.1799 124.94C87.3537 124.947 86.5333 124.801 85.7599 124.51C85.052 124.238 84.4059 123.826 83.8599 123.3C83.3186 122.77 82.893 122.133 82.6099 121.43C82.3027 120.661 82.1498 119.838 82.1599 119.01C82.1505 118.177 82.3104 117.35 82.6299 116.58C82.9322 115.878 83.3746 115.245 83.9299 114.72C84.4881 114.197 85.144 113.789 85.8599 113.52C86.6153 113.227 87.4197 113.081 88.2299 113.09C88.9561 113.087 89.6782 113.199 90.3699 113.42C91.0671 113.649 91.6985 114.044 92.2099 114.57L91.2099 115.62C90.8266 115.188 90.3518 114.846 89.8199 114.62C89.2862 114.403 88.7159 114.291 88.1399 114.29C87.5225 114.285 86.9105 114.404 86.3399 114.64C85.7932 114.862 85.2979 115.194 84.885 115.615C84.4722 116.037 84.1504 116.539 83.9399 117.09C83.4866 118.299 83.4866 119.631 83.9399 120.84C84.1703 121.399 84.5103 121.905 84.9399 122.33C85.3587 122.762 85.8627 123.103 86.4199 123.33C87.0213 123.568 87.6632 123.687 88.3099 123.68C88.7946 123.675 89.2774 123.618 89.7499 123.51C90.2265 123.409 90.6873 123.244 91.1199 123.02V119.61H88.5199V118.36H92.4599L92.4099 123.89Z" fill="#231F20"/>
</g>
<defs>
<linearGradient id="paint0_linear" x1="6.52004" y1="44.06" x2="100.8" y2="44.06" gradientUnits="userSpaceOnUse">
<stop stop-color="#14BECF"/>
<stop offset="1" stop-color="#507AA6"/>
</linearGradient>
<linearGradient id="paint1_linear" x1="12901.2" y1="16764.8" x2="14768.6" y2="16764.8" gradientUnits="userSpaceOnUse">
<stop stop-color="#14BECF"/>
<stop offset="1" stop-color="#507AA6"/>
</linearGradient>
<linearGradient id="paint2_linear" x1="12083.3" y1="15662.3" x2="13734.7" y2="15662.3" gradientUnits="userSpaceOnUse">
<stop stop-color="#14BECF"/>
<stop offset="1" stop-color="#507AA6"/>
</linearGradient>
<linearGradient id="paint3_linear" x1="11189.2" y1="14557.1" x2="12619.9" y2="14557.1" gradientUnits="userSpaceOnUse">
<stop stop-color="#14BECF"/>
<stop offset="1" stop-color="#507AA6"/>
</linearGradient>
<linearGradient id="paint4_linear" x1="2301.83" y1="2366.53" x2="2342.84" y2="2366.53" gradientUnits="userSpaceOnUse">
<stop stop-color="#14BECF"/>
<stop offset="1" stop-color="#507AA6"/>
</linearGradient>
<linearGradient id="paint5_linear" x1="2266.32" y1="2435.7" x2="2307.66" y2="2435.7" gradientUnits="userSpaceOnUse">
<stop stop-color="#14BECF"/>
<stop offset="1" stop-color="#507AA6"/>
</linearGradient>
<linearGradient id="paint6_linear" x1="2190.65" y1="2463.49" x2="2230.79" y2="2463.49" gradientUnits="userSpaceOnUse">
<stop stop-color="#14BECF"/>
<stop offset="1" stop-color="#507AA6"/>
</linearGradient>
<linearGradient id="paint7_linear" x1="1228.13" y1="4764.15" x2="1255.97" y2="4764.15" gradientUnits="userSpaceOnUse">
<stop stop-color="#14BECF"/>
<stop offset="1" stop-color="#507AA6"/>
</linearGradient>
<linearGradient id="paint8_linear" x1="1139.74" y1="4845" x2="1178.89" y2="4845" gradientUnits="userSpaceOnUse">
<stop stop-color="#14BECF"/>
<stop offset="1" stop-color="#507AA6"/>
</linearGradient>
<linearGradient id="paint9_linear" x1="1072.12" y1="5000.08" x2="1119.7" y2="5000.08" gradientUnits="userSpaceOnUse">
<stop stop-color="#14BECF"/>
<stop offset="1" stop-color="#507AA6"/>
</linearGradient>
<linearGradient id="paint10_linear" x1="204.377" y1="43.8088" x2="223.343" y2="43.8088" gradientUnits="userSpaceOnUse">
<stop stop-color="#14BECF"/>
<stop offset="1" stop-color="#507AA6"/>
</linearGradient>
<linearGradient id="paint11_linear" x1="126.004" y1="62.944" x2="144.97" y2="62.944" gradientUnits="userSpaceOnUse">
<stop stop-color="#14BECF"/>
<stop offset="1" stop-color="#507AA6"/>
</linearGradient>
<linearGradient id="paint12_linear" x1="62.0589" y1="105.663" x2="81.0249" y2="105.663" gradientUnits="userSpaceOnUse">
<stop stop-color="#14BECF"/>
<stop offset="1" stop-color="#507AA6"/>
</linearGradient>
<linearGradient id="paint13_linear" x1="13.9361" y1="169.822" x2="32.9021" y2="169.822" gradientUnits="userSpaceOnUse">
<stop stop-color="#14BECF"/>
<stop offset="1" stop-color="#507AA6"/>
</linearGradient>
<linearGradient id="paint14_linear" x1="5894.82" y1="8301.03" x2="6350.01" y2="8301.03" gradientUnits="userSpaceOnUse">
<stop stop-color="#14BECF"/>
<stop offset="1" stop-color="#507AA6"/>
</linearGradient>
<clipPath id="clip0">
<rect width="105.03" height="124.94" fill="white"/>
</clipPath>
</defs>
</svg>
