<?xml version="1.0" encoding="utf-8"?>
<!-- Generator: Adobe Illustrator 23.0.0, SVG Export Plug-In . SVG Version: 6.00 Build 0)  -->
<svg version="1.1" id="Capa_8" xmlns="http://www.w3.org/2000/svg" xmlns:xlink="http://www.w3.org/1999/xlink" x="0px" y="0px"
	 viewBox="0 0 3191.1 679.6" style="enable-background:new 0 0 3191.1 679.6;" xml:space="preserve">
<style type="text/css">
	.st0{fill:#008DDB;}
	.st1{fill:#FFFFFF;stroke:#000000;stroke-width:8;stroke-miterlimit:10;}
	.st2{stroke:#000000;stroke-width:2;stroke-miterlimit:10;}
	.st3{fill:#B3B3B3;}
	.st4{fill:#FFFFFF;stroke:#000000;stroke-width:6;stroke-miterlimit:10;}
</style>
<title>Logo</title>
<g id="Capa_1">
	<path class="st0" d="M286.1,499.5c38.2-0.3,69.4,30.3,69.8,68.5c0,0.3,0,0.6,0,0.9c0,38.6-29.6,69.8-69.9,70
		c-38.2,0.2-71.4-30.8-69.6-73.4C217.9,530.3,247.4,499,286.1,499.5z"/>
</g>
<g>
	<path d="M612.7,365.8v2.8c0,16.9,0,33.9,0,50.8c0,4.2-1.9,6.1-6,6.1h-48.6c-3.2,0.2-6-2.3-6.2-5.5c0-0.1,0-0.2,0-0.3
		c0-0.5,0-1.1,0-1.6V211c0-5.3,2-7.3,7.4-7.3c29.3,0,58.5-0.1,87.8,0.1c11.5,0.1,22.9,2.5,33.4,7.2c17.6,7.6,31.4,22.1,38,40.1
		c3,8.3,4.9,17,5.5,25.8c0.7,8.8,0.2,17.7-1.4,26.4c-1.8,10.8-5.9,21.1-12.1,30.2c-10.4,15.4-25,24.8-42.8,29.4
		c-7.7,2-15.6,2.9-23.6,2.8c-10-0.1-20,0-30,0C613.9,365.7,613.5,365.8,612.7,365.8z M612.9,309.5h2.6c7.1,0,14.2,0.1,21.3,0
		c2.7,0,5.4-0.3,8-0.9c7.8-2.1,13.6-6.5,15.9-14.6c1.5-5.5,1.6-11.2,0.3-16.7c-1.1-5.7-4.7-10.6-9.8-13.4c-4.3-2.4-9.1-3.7-13.9-3.7
		c-6.8-0.2-13.6-0.1-20.4-0.1h-4.1L612.9,309.5z"/>
</g>
<g id="Capa_3">
	<path class="st0" d="M450.3,314.5c0-34.9,0-69.7,0-104.6c0-4.1,2.3-6.2,6.3-6.2c16,0,32.1,0,48.1,0c4.2,0,6.5,2.3,6.5,6.4
		c0,69.7,0,139.3,0,209c0.2,3.5-2.5,6.4-5.9,6.6c-0.2,0-0.4,0-0.7,0c-15.9-0.1-31.8-0.1-47.6,0c-4.2,0-6.6-2-6.6-6.6
		C450.4,384.2,450.3,349.4,450.3,314.5z"/>
</g>
<g id="Capa_4">
	<path d="M351.6,295.4c-2.3,5.8-4.3,10.8-6.3,15.8c-3.8,9.1-7.6,18.3-11.6,27.3c-5.1,11.7-10.5,23.3-15.6,35c-1.6,3.5-4,5.1-7.9,5
		c-11.5-0.2-23-0.1-34.5,0c-3.2,0-5.5-1.1-6.8-4.1c-5.7-12.9-11.5-25.6-17.1-38.5c-4.6-10.6-9-21.3-13.5-32
		c-1.1-2.6-2.1-5.2-3.1-7.9l-0.8,0.1c-0.2,1.4-0.2,2.9-0.2,4.3c0.2,3.4,0.7,6.7,0.8,10.1c0.3,5,0.3,10.1,0.5,15.1
		c0.3,8.1,0.6,16.3,0.9,24.4c0.2,4.1,0.4,8.3,0.4,12.4c0.2,19,0.3,37.9,0.5,56.9c0,4.6-1.8,6.4-6.5,6.4c-15.6,0-31.2-0.1-46.8,0.1
		c-3.5,0.2-6.5-2.6-6.7-6.1c0-0.2,0-0.5,0-0.7c0.1-9.9,0-19.8,0-29.7c0-59.4,0-118.8,0-178.2c0-5.2,2-7.3,7.2-7.3
		c17.3,0,34.5,0,51.8,0c3.4-0.2,6.6,1.7,7.9,4.8c6.4,12.9,13.1,25.6,19.3,38.6c6.2,13,12,26.5,17.9,39.9c4,9,7.7,18.2,11.9,27.9
		c0.9-2.1,1.7-3.9,2.5-5.7c5.1-12,9.8-24.1,15.2-35.8c10.2-21.8,20.9-43.4,31.3-65c1.3-3.1,4.4-4.9,7.7-4.7c17.5,0,35,0,52.4,0
		c4.2,0,6.5,2,6.5,6.4c-0.1,69.7-0.1,139.4,0,209.1c0,4.7-1.8,6.5-6.6,6.5h-46.7c-4.1,0-6.5-2.3-6.5-6.4c0-11.9-0.1-23.8,0-35.6
		c0-7.5,0.3-15.1,0.4-22.6c0.1-4.8,0.3-9.6,0.5-14.5c0.3-7.5,0.6-15,0.9-22.6c0.3-5.7,0.6-11.4,0.9-17.1c0.2-3.1,0.5-6.3,0.7-9.4
		C352.5,297,352.1,296.4,351.6,295.4z"/>
</g>
<g id="Capa_5">
	<path class="st0" d="M69.9,374.6c37.4-0.7,72,31.3,69.6,73.8c-2,35.5-30.7,65.6-69.5,65.6c-40,0-69.8-31-69.9-69.8
		c-0.3-38.2,30.5-69.3,68.7-69.6C69.1,374.6,69.5,374.6,69.9,374.6z"/>
</g>
<g id="Capa_6">
	<path class="st0" d="M216.4,69.8C215.7,32.4,247-2,289.6,0.1c35.6,1.7,66.3,30.5,66.2,69.8c-0.2,39-30.4,69.6-70.2,69.6
		c-38,0.2-69-30.5-69.2-68.6C216.4,70.6,216.4,70.2,216.4,69.8z"/>
</g>
<g id="Capa_7">
	<path class="st0" d="M139.4,194.7c0.3,38.2-30.4,69.4-68.6,69.7c-0.4,0-0.8,0-1.2,0C30.2,264.2,0.1,233.5,0,194.8
		s31.3-71.9,74-69.8C108.4,126.6,139.8,155.7,139.4,194.7z"/>
</g>
<g>
	<path d="M805.1,309.4h-38.2v-32.2h38.2V309.4z M805.1,399.8h-38.2v-32.2h38.2V399.8z"/>
	<path d="M941.9,234.8l36.9,115.4h0.7l37.4-115.4h50.5v164.9H1029v-40.9l3.6-75.3l-0.7-0.1l-39.8,116.3h-25.8l-39.3-115.3l-0.7,0.1
		l3.6,74.3v40.9h-38.4V234.8H941.9z"/>
	<path d="M1147.2,402.1c-18.1,0-32.5-5.7-43.2-17s-16.1-25.5-16.1-42.6v-4.3c0-18.7,4.9-33.9,14.7-45.7c9.8-11.8,23.8-17.7,42-17.6
		c16.6,0,29.6,5,39.1,15c9.4,10,14.2,23.5,14.2,40.6v20.1h-70l-0.2,0.7c0.8,6.3,3.4,11.4,7.7,15.5c4.3,4,10,6.1,17.2,6.1
		c7.3,0,13-0.6,17.4-1.7c4.3-1.1,9.8-3.1,16.5-5.9l9.1,23.3c-5.4,3.9-12.3,7.2-20.8,9.8S1156.9,402.1,1147.2,402.1z M1144.5,304.4
		c-5.5,0-9.6,2-12.4,5.9c-2.8,3.9-4.4,9.2-5,15.7l0.3,0.6h33v-2.9c0-6.2-1.3-10.9-3.9-14.3C1153.9,306,1149.9,304.4,1144.5,304.4z"
		/>
	<path d="M1269.9,402.1c-18.1,0-32.5-5.7-43.2-17s-16.1-25.5-16.1-42.6v-4.3c0-18.7,4.9-33.9,14.7-45.7c9.8-11.8,23.8-17.7,42-17.6
		c16.6,0,29.6,5,39.1,15c9.4,10,14.2,23.5,14.2,40.6v20.1h-70l-0.2,0.7c0.8,6.3,3.4,11.4,7.7,15.5c4.3,4,10,6.1,17.2,6.1
		c7.3,0,13-0.6,17.4-1.7c4.3-1.1,9.8-3.1,16.5-5.9l9.1,23.3c-5.4,3.9-12.3,7.2-20.8,9.8S1279.6,402.1,1269.9,402.1z M1267.2,304.4
		c-5.5,0-9.6,2-12.4,5.9c-2.8,3.9-4.4,9.2-5,15.7l0.3,0.6h33v-2.9c0-6.2-1.3-10.9-3.9-14.3C1276.6,306,1272.6,304.4,1267.2,304.4z"
		/>
	<path d="M1381.9,246.7v30.5h20.7v26.5h-20.7v56.2c0,4.4,0.9,7.5,2.7,9.5c1.8,1.9,4.2,2.9,7.2,2.9c2.4,0,4.3-0.1,5.7-0.2
		c1.4-0.2,3.2-0.5,5.4-0.9l2.7,28.3c-4.2,1-8,1.7-11.4,2.1c-3.4,0.4-7.4,0.6-12,0.6c-12.6,0-22.2-3.4-28.7-10.1
		c-6.5-6.7-9.7-17.4-9.7-31.9v-56.4h-17.2v-26.5h17.2v-30.5H1381.9z"/>
	<path d="M1460.8,248.8h-38.4V223h38.4V248.8z M1460.8,399.8h-38.4V277.2h38.4V399.8z"/>
	<path d="M1519.4,277.2l1.5,17.2c4-6.1,8.9-10.9,14.8-14.3c5.9-3.4,12.5-5.2,19.7-5.2c12,0,21.4,3.9,28.2,11.7
		c6.8,7.8,10.1,20.2,10.1,37.2v76h-38.3v-76.1c0-7-1.5-12-4.4-14.9c-2.9-2.9-7.2-4.4-12.9-4.4c-3.6,0-6.7,0.6-9.5,1.9
		c-2.8,1.3-5.1,3.1-7.1,5.3v88.1h-38.2V277.2H1519.4z"/>
	<path d="M1609.5,338.7c0-19.1,4.2-34.5,12.5-46.2c8.3-11.7,20.1-17.6,35.2-17.6c6.5,0,12.2,1.5,17.1,4.6c4.9,3.1,9.1,7.4,12.7,13.1
		l2.6-15.4h33.5V395c0,16.4-5.6,29.5-16.9,39.4c-11.3,9.9-26.4,14.8-45.4,14.8c-6.3,0-13-0.9-19.9-2.6c-6.9-1.7-13.6-4.1-19.8-7
		l6.2-28.3c5.6,2.4,10.9,4.2,16,5.4c5.1,1.2,10.8,1.8,17.3,1.8c7.9,0,13.9-2.1,18-6.3c4.2-4.2,6.2-10,6.2-17.3v-6.2
		c-3.5,4.5-7.5,7.8-12.1,10.1c-4.6,2.3-9.9,3.5-15.7,3.5c-15.1,0-26.8-5.6-35.1-16.8c-8.3-11.2-12.4-25.9-12.4-44.3V338.7z
		 M1647.7,341.1c0,10,1.5,17.7,4.4,23.3c2.9,5.6,7.8,8.3,14.7,8.3c4.2,0,7.7-0.6,10.7-1.9c3-1.3,5.5-3.2,7.4-5.9v-51.4
		c-1.9-2.9-4.3-5.1-7.3-6.7c-3-1.6-6.5-2.4-10.6-2.4c-6.8,0-11.7,3.1-14.7,9.4c-3,6.3-4.5,14.6-4.5,24.9V341.1z"/>
	<path d="M1845.6,399.8h-38.2V234.8h38.2V399.8z"/>
	<path d="M1907.2,277.2l1.5,17.2c4-6.1,8.9-10.9,14.8-14.3c5.9-3.4,12.5-5.2,19.7-5.2c12,0,21.4,3.9,28.2,11.7
		c6.8,7.8,10.1,20.2,10.1,37.2v76h-38.3v-76.1c0-7-1.5-12-4.4-14.9c-2.9-2.9-7.2-4.4-12.9-4.4c-3.6,0-6.7,0.6-9.5,1.9
		c-2.8,1.3-5.1,3.1-7.1,5.3v88.1h-38.2V277.2H1907.2z"/>
	<path d="M2100.6,343.2v56.5h-38.4V234.8h66.9c19.6,0,35.1,5,46.6,15c11.5,10,17.2,23.1,17.2,39.3c0,16.2-5.7,29.3-17.2,39.3
		c-11.5,9.9-27,14.9-46.6,14.9H2100.6z M2100.6,313.8h28.5c8.3,0,14.6-2.3,19-6.9c4.3-4.6,6.5-10.4,6.5-17.6c0-7.3-2.2-13.3-6.5-18
		c-4.3-4.7-10.7-7-19-7h-28.5V313.8z"/>
	<path d="M2281.6,310.9l-13.9-0.1c-4.4,0-8,0.7-10.8,2.2c-2.8,1.5-4.9,3.6-6.2,6.3v80.4h-38.3V277.2h36l1.4,18
		c2.6-6.4,6-11.4,10.2-15c4.2-3.5,9.2-5.3,14.8-5.3c1.8,0,3.7,0.1,5.6,0.4c1.9,0.3,3.5,0.6,5,1L2281.6,310.9z"/>
	<path d="M2290.8,337.3c0-18.4,5.2-33.4,15.6-45c10.4-11.6,25-17.4,43.6-17.4c18.7,0,33.3,5.8,43.7,17.4
		c10.4,11.6,15.6,26.6,15.6,45v2.4c0,18.5-5.2,33.5-15.6,45.1s-24.9,17.3-43.5,17.3c-18.8,0-33.4-5.8-43.8-17.3
		s-15.6-26.6-15.6-45.1V337.3z M2329.1,339.7c0,10.3,1.6,18.3,4.8,24.2c3.2,5.9,8.7,8.8,16.4,8.8c7.5,0,12.8-2.9,16.1-8.8
		c3.2-5.9,4.9-13.9,4.9-24.1v-2.4c0-10-1.6-18-4.9-24c-3.2-6-8.7-9-16.3-9c-7.6,0-12.9,3-16.1,9.1c-3.2,6-4.8,14-4.8,23.9V339.7z"/>
	<path d="M2421.2,338.7c0-19.1,4.2-34.5,12.5-46.2c8.3-11.7,20.1-17.6,35.2-17.6c6.5,0,12.2,1.5,17.1,4.6c4.9,3.1,9.1,7.4,12.7,13.1
		l2.6-15.4h33.5V395c0,16.4-5.6,29.5-16.9,39.4c-11.3,9.9-26.4,14.8-45.4,14.8c-6.3,0-13-0.9-19.9-2.6c-6.9-1.7-13.6-4.1-19.8-7
		l6.2-28.3c5.6,2.4,10.9,4.2,16,5.4c5.1,1.2,10.8,1.8,17.3,1.8c7.9,0,13.9-2.1,18-6.3c4.2-4.2,6.2-10,6.2-17.3v-6.2
		c-3.5,4.5-7.5,7.8-12.1,10.1c-4.6,2.3-9.9,3.5-15.7,3.5c-15.1,0-26.8-5.6-35.1-16.8c-8.3-11.2-12.4-25.9-12.4-44.3V338.7z
		 M2459.3,341.1c0,10,1.5,17.7,4.4,23.3c2.9,5.6,7.8,8.3,14.7,8.3c4.2,0,7.7-0.6,10.7-1.9c3-1.3,5.5-3.2,7.4-5.9v-51.4
		c-1.9-2.9-4.3-5.1-7.3-6.7c-3-1.6-6.5-2.4-10.6-2.4c-6.8,0-11.7,3.1-14.7,9.4c-3,6.3-4.5,14.6-4.5,24.9V341.1z"/>
	<path d="M2625.9,310.9l-13.9-0.1c-4.4,0-8,0.7-10.8,2.2c-2.8,1.5-4.9,3.6-6.2,6.3v80.4h-38.3V277.2h36l1.4,18
		c2.6-6.4,6-11.4,10.2-15c4.2-3.5,9.2-5.3,14.8-5.3c1.8,0,3.7,0.1,5.6,0.4c1.9,0.3,3.5,0.6,5,1L2625.9,310.9z"/>
	<path d="M2696.2,402.1c-18.1,0-32.5-5.7-43.2-17s-16.1-25.5-16.1-42.6v-4.3c0-18.7,4.9-33.9,14.7-45.7c9.8-11.8,23.8-17.7,42-17.6
		c16.6,0,29.6,5,39.1,15c9.4,10,14.2,23.5,14.2,40.6v20.1h-70l-0.2,0.7c0.8,6.3,3.4,11.4,7.7,15.5c4.3,4,10,6.1,17.2,6.1
		c7.3,0,13-0.6,17.4-1.7c4.3-1.1,9.8-3.1,16.5-5.9l9.1,23.3c-5.4,3.9-12.3,7.2-20.8,9.8S2705.9,402.1,2696.2,402.1z M2693.5,304.4
		c-5.5,0-9.6,2-12.4,5.9c-2.8,3.9-4.4,9.2-5,15.7l0.3,0.6h33v-2.9c0-6.2-1.3-10.9-3.9-14.3C2702.9,306,2698.9,304.4,2693.5,304.4z"
		/>
	<path d="M2826.8,365.3c0-3-1.7-5.7-5.2-8.1c-3.4-2.4-9.7-4.5-18.7-6.4c-14.3-2.8-25-7.1-32.3-13s-10.9-13.9-10.9-24.1
		c0-10.8,4.5-20,13.6-27.5c9.1-7.5,21.3-11.3,36.8-11.3c16.3,0,29.3,3.6,39,10.9c9.7,7.3,14.3,16.7,13.8,28.3l-0.2,0.7h-37.2
		c0-4.8-1.2-8.5-3.7-11c-2.5-2.5-6.4-3.7-11.8-3.7c-4,0-7.4,1.1-10.1,3.3c-2.7,2.2-4.1,5-4.1,8.4c0,3.2,1.6,6,4.7,8.3
		c3.1,2.3,9.5,4.3,19,6.1c15,2.9,26,7.3,33.2,13.2c7.2,5.9,10.8,14.1,10.8,24.9c0,11-4.9,20.1-14.7,27.2
		c-9.8,7.1-22.7,10.7-38.8,10.7c-16.7,0-29.9-4.2-39.6-12.7c-9.7-8.5-14.3-17.9-13.9-28.3l0.2-0.7h34.7c0.2,5.8,1.9,10,5.3,12.6
		c3.4,2.6,8.1,3.9,14.3,3.9c5.1,0,9-1,11.7-3C2825.5,371.9,2826.8,369,2826.8,365.3z"/>
	<path d="M2945.5,365.3c0-3-1.7-5.7-5.2-8.1c-3.4-2.4-9.7-4.5-18.7-6.4c-14.3-2.8-25-7.1-32.3-13s-10.9-13.9-10.9-24.1
		c0-10.8,4.5-20,13.6-27.5c9.1-7.5,21.3-11.3,36.8-11.3c16.3,0,29.3,3.6,39,10.9c9.7,7.3,14.3,16.7,13.8,28.3l-0.2,0.7h-37.2
		c0-4.8-1.2-8.5-3.7-11c-2.5-2.5-6.4-3.7-11.8-3.7c-4,0-7.4,1.1-10.1,3.3c-2.7,2.2-4.1,5-4.1,8.4c0,3.2,1.6,6,4.7,8.3
		c3.1,2.3,9.5,4.3,19,6.1c15,2.9,26,7.3,33.2,13.2c7.2,5.9,10.8,14.1,10.8,24.9c0,11-4.9,20.1-14.7,27.2
		c-9.8,7.1-22.7,10.7-38.8,10.7c-16.7,0-29.9-4.2-39.6-12.7c-9.7-8.5-14.3-17.9-13.9-28.3l0.2-0.7h34.7c0.2,5.8,1.9,10,5.3,12.6
		c3.4,2.6,8.1,3.9,14.3,3.9c5.1,0,9-1,11.7-3C2944.2,371.9,2945.5,369,2945.5,365.3z"/>
</g>
<g>
	<path d="M2028.3,578.6c-2.2,11.1-6,19.5-11.3,25.1c-5.3,5.6-12.1,8.4-20.4,8.4c-3.9,0-7.4-0.7-10.5-2.2s-5.7-3.6-7.7-6.4l-7,35.1
		h-12.9l20-100.2h11.1l-0.5,7.2c2.7-2.8,5.7-4.9,9-6.3c3.3-1.4,6.9-2.2,10.7-2.2c7.8,0,13.6,3.9,17.4,11.6
		c3.8,7.7,4.5,17.3,2.3,28.6L2028.3,578.6z M2015.7,577.2c1.7-8.6,1.4-15.7-0.8-21.2c-2.2-5.5-6.2-8.3-12.1-8.3
		c-3,0-5.8,0.9-8.3,2.6s-4.8,4.1-6.9,7.1l-7.1,35.3c1.2,2.8,2.9,5,5.2,6.6c2.3,1.6,5.3,2.4,8.9,2.4c5.3,0,9.7-2.1,13.2-6.2
		c3.5-4.2,6-9.8,7.5-16.9L2015.7,577.2z"/>
	<path d="M2041.7,573.9c1.8-11.1,5.9-20.1,12.3-26.8c6.4-6.7,14.3-10.1,23.7-10.1c9,0,15.8,3.5,20.2,10.5c4.5,7,5.9,15.8,4.2,26.4
		l-0.2,1.5c-1.8,11.2-5.9,20.1-12.3,26.8c-6.4,6.7-14.3,10-23.7,10c-9,0-15.8-3.5-20.2-10.4c-4.5-7-5.9-15.7-4.1-26.4L2041.7,573.9z
		 M2054.4,575.3c-1.3,8-0.9,14.4,1.2,19.2c2.1,4.8,6,7.2,11.9,7.2c5.4,0,10.1-2.5,13.9-7.6c3.8-5.1,6.4-11.3,7.6-18.9l0.2-1.5
		c1.2-7.8,0.8-14.2-1.3-19.1c-2.1-4.9-6-7.4-11.8-7.4c-5.5,0-10.1,2.5-13.9,7.6c-3.8,5.1-6.3,11.4-7.5,18.8L2054.4,575.3z"/>
	<path d="M2155.6,550l-7.1-0.4c-2.9,0-5.7,0.8-8.1,2.5c-2.5,1.7-4.6,4-6.5,7.1l-10.3,51.6h-12.9l14.4-72.4h11.6l-0.8,9.7
		c2.5-3.5,5.3-6.2,8.5-8.2c3.1-1.9,6.5-2.9,10.1-2.9c0.9,0,1.9,0.1,2.9,0.2c1,0.2,1.8,0.3,2.3,0.5L2155.6,550z"/>
	<path d="M2211.6,571.7l-7.8,39H2191l19.5-97.4h35.1c9,0,15.8,2.7,20.4,8.2c4.6,5.4,6.1,12.5,4.4,21c-1.9,9.4-6,16.6-12.3,21.7
		c-6.3,5-14.3,7.5-24.2,7.5H2211.6z M2213.7,561.3h22.3c5.5,0,10.2-1.8,14.1-5.4c3.9-3.6,6.3-8,7.4-13.3c1.1-5.7,0.6-10.3-1.6-13.7
		c-2.2-3.5-6.3-5.2-12.3-5.2h-22.2L2213.7,561.3z"/>
	<path d="M2311.8,610.7c0-2.2,0-4,0.1-5.4c0.1-1.4,0.2-2.8,0.5-4.3c-3,3.2-6.4,5.8-10.3,7.9c-3.9,2.1-7.7,3.2-11.6,3.2
		c-6.6,0-11.5-2-14.6-5.9c-3.1-3.9-4-9.2-2.6-15.8c1.4-7.4,5-12.9,10.9-16.6c5.8-3.7,13.3-5.5,22.4-5.5h12.4l1.4-7.2
		c0.9-4.5,0.4-7.9-1.5-10.3c-1.9-2.3-5-3.5-9.4-3.5c-3.7,0-7.1,1.1-10.2,3.3c-3,2.2-4.8,4.8-5.4,7.7h-12.2l-0.1-0.4
		c0.9-5.6,4.2-10.5,10-14.7c5.8-4.2,12.7-6.3,20.7-6.3c7.2,0,12.9,2.1,17,6.4s5.5,10.2,4,17.9l-7,34.9c-0.6,2.7-1,5.2-1.2,7.6
		c-0.2,2.3-0.2,4.7,0,7H2311.8z M2294.7,601.1c3.6,0,7.3-1,11-3.1c3.7-2.1,6.6-4.6,8.7-7.4l2.7-13.3h-12.8c-4.4,0-8.4,1.4-11.9,4.1
		c-3.5,2.7-5.6,5.8-6.3,9.4c-0.7,3.4-0.4,6,1,7.8C2288.5,600.2,2291,601.1,2294.7,601.1z"/>
	<path d="M2366.4,548.3c2.9-3.7,6.3-6.5,10-8.4c3.7-1.9,7.7-2.9,12-2.9c6.8,0,11.9,2.3,15.2,7c3.3,4.6,4,11.7,2.1,21.1l-9.2,45.7
		h-12.9l9.1-45.4c1.3-6.8,1.2-11.4-0.5-13.9c-1.7-2.5-5-3.7-9.9-3.7c-3.1,0-6.2,0.9-9.3,2.8c-3.1,1.9-5.8,4.4-8.1,7.6l-10.5,52.6
		h-12.9l14.4-72.4h11.6L2366.4,548.3z"/>
	<path d="M2419.2,574.5c2.5-12.4,6.4-21.8,11.8-28.1c5.4-6.3,12.4-9.4,20.9-9.4c3.7,0,7.1,0.8,10.1,2.3c3,1.5,5.5,3.7,7.4,6.5
		l7.9-39.5h12.9l-20.9,104.4h-11.1l0.5-7c-2.7,2.8-5.6,4.8-8.9,6.3c-3.2,1.4-6.7,2.1-10.5,2.1c-7.8,0-13.6-3.5-17.6-10.4
		c-3.9-7-4.9-15.5-2.8-25.8L2419.2,574.5z M2431.9,575.9c-1.6,7.7-1.3,13.8,0.9,18.5c2.1,4.7,6.2,7,12,7c3.2,0,6-0.9,8.5-2.6
		c2.5-1.8,4.8-4.3,6.9-7.5l6.8-34.2c-1.2-2.9-2.9-5.1-5.3-6.8c-2.3-1.7-5.3-2.5-8.7-2.5c-5.4,0-9.8,2.4-13.3,7.3
		c-3.5,4.8-6.1,11.4-7.7,19.6L2431.9,575.9z"/>
	<path d="M2545.2,585.6h-37.3l-13.6,25.1h-13.1l54.6-97.4h11l15.1,97.4h-13.2L2545.2,585.6z M2513.9,574.6h29.8l-5.9-43.3l-0.4-0.1
		L2513.9,574.6z"/>
	<path d="M2637.3,578.6c-2.2,11.1-6,19.5-11.3,25.1c-5.3,5.6-12.1,8.4-20.4,8.4c-3.9,0-7.4-0.7-10.5-2.2s-5.7-3.6-7.7-6.4l-7,35.1
		h-12.9l20-100.2h11.1l-0.5,7.2c2.7-2.8,5.7-4.9,9-6.3c3.3-1.4,6.9-2.2,10.7-2.2c7.8,0,13.6,3.9,17.4,11.6
		c3.8,7.7,4.5,17.3,2.3,28.6L2637.3,578.6z M2624.6,577.2c1.7-8.6,1.4-15.7-0.8-21.2c-2.2-5.5-6.2-8.3-12.1-8.3
		c-3,0-5.8,0.9-8.3,2.6s-4.8,4.1-6.9,7.1l-7.1,35.3c1.2,2.8,2.9,5,5.2,6.6c2.3,1.6,5.3,2.4,8.9,2.4c5.3,0,9.7-2.1,13.2-6.2
		c3.5-4.2,6-9.8,7.5-16.9L2624.6,577.2z"/>
	<path d="M2710.6,578.6c-2.2,11.1-6,19.5-11.3,25.1c-5.3,5.6-12.1,8.4-20.4,8.4c-3.9,0-7.4-0.7-10.5-2.2s-5.7-3.6-7.7-6.4l-7,35.1
		h-12.9l20-100.2h11.1l-0.5,7.2c2.7-2.8,5.7-4.9,9-6.3c3.3-1.4,6.9-2.2,10.7-2.2c7.8,0,13.6,3.9,17.4,11.6
		c3.8,7.7,4.5,17.3,2.3,28.6L2710.6,578.6z M2698,577.2c1.7-8.6,1.4-15.7-0.8-21.2c-2.2-5.5-6.2-8.3-12.1-8.3c-3,0-5.8,0.9-8.3,2.6
		s-4.8,4.1-6.9,7.1l-7.1,35.3c1.2,2.8,2.9,5,5.2,6.6c2.3,1.6,5.3,2.4,8.9,2.4c5.3,0,9.7-2.1,13.2-6.2c3.5-4.2,6-9.8,7.5-16.9
		L2698,577.2z"/>
	<path d="M2762.8,591.5c0.5-3-0.1-5.4-1.8-7.2c-1.7-1.8-5.2-3.4-10.6-4.8c-7.9-1.9-13.7-4.5-17.4-7.8c-3.7-3.3-5-7.8-4.1-13.4
		c1-6.1,4.1-11.2,9.4-15.2c5.3-4,11.8-6.1,19.3-6.1c7.6,0,13.4,2.2,17.5,6.6c4.1,4.4,5.6,9.6,4.4,15.7l-0.2,0.4h-12.4
		c0.5-3.3-0.2-6.1-2.1-8.6c-2-2.5-4.9-3.7-8.8-3.7c-4,0-7.3,1-9.8,3.1c-2.5,2.1-4,4.6-4.4,7.4c-0.5,3,0,5.3,1.6,6.8
		c1.5,1.6,5,3,10.5,4.4c8.2,2,14.2,4.6,17.8,8c3.6,3.4,5,7.9,4.1,13.5c-1.1,6.6-4.3,11.9-9.8,15.7c-5.4,3.9-12.1,5.8-20.1,5.8
		c-8.3,0-14.6-2.4-19-7.1c-4.4-4.7-5.9-10.2-4.7-16.3l0.1-0.4h12.4c-0.6,4.7,0.4,8.1,3,10.2c2.6,2.2,5.8,3.2,9.8,3.2
		c4.1,0,7.5-1,10.3-2.9C2760.6,597,2762.3,594.5,2762.8,591.5z"/>
</g>
<path class="st1" d="M3128,581.5c0,58.7-61.9,67.6-137.9,67.6s-137.5-8.9-137.5-67.6c0-58.7,61.6-106.4,137.7-106.4
	C3066.3,475.1,3128,522.7,3128,581.5z"/>
<path class="st2" d="M2918.9,490.3c0,0-2.6-32.9-45.9-27.9c-43.3,5.1-56.6,72.4-10.4,79.2C2862.6,541.7,2890.8,500.4,2918.9,490.3z"
	/>
<path class="st2" d="M3063.1,490.3c0,0,2.5-32.9,45.9-27.9c43.3,5.1,56.6,72.4,10.4,79.2C3119.5,541.7,3091.2,500.4,3063.1,490.3z"
	/>
<path class="st3" d="M3002.9,565.5c0,0-7.5-44.8,28.2-34.7c0,0,20.4,5.1,17.8,22.8c0,0,25.5-2.5,28,20.3c0,0,2.5,20.3-22.9,20.3
	l-22.9-1.7C3031.1,592.5,3015.5,567.3,3002.9,565.5z"/>
<path class="st3" d="M2974.4,563c0,0,7.5-44.8-28.2-34.7c0,0-20.4,5.1-17.8,22.8c0,0-25.5-2.5-28,20.3c0,0-2.6,20.3,22.9,20.3
	l22.9-1.7C2946.2,589.9,2961.8,564.8,2974.4,563z"/>
<ellipse class="st4" cx="2989" cy="595.4" rx="42.1" ry="31.7"/>
<path d="M2987.7,596.7c0,0-18.6-7.2-9.3-15c0,0,12.8-6.8,23.8,1.5c0,0,3.3,5.8-9.4,13.4"/>
<g>
	<g>
		<path d="M2987.8,595.6c2.7,1.9,5.9,0.9,8.3-1c2.4-1.9,5.2-4.8,5.9-7.9c1.8-7.9-11.6-6.9-16-6.6c-0.6,0-0.6,1,0,1
			c3.8-0.2,16.4-1.2,15.1,5.4c-0.5,2.4-2.6,4.6-4.4,6.3c-2.3,2.1-5.4,4-8.4,2C2987.8,594.3,2987.3,595.2,2987.8,595.6L2987.8,595.6z
			"/>
	</g>
</g>
<g>
	<g>
		<path d="M2988.5,597.1c0.2,3.6,0.2,8.3-4.3,8.6c-1.6,0.1-3.5,0.3-5.1,0.1c-2-0.3-3.1-1.7-4.2-3.2c-1.5-2.1-5-0.1-3.5,2
			c1.5,2,3.1,4.2,5.7,4.9c2.5,0.7,5.9,0.5,8.5,0.1c6.2-1,7.2-7.3,7-12.5C2992.4,594.5,2988.4,594.5,2988.5,597.1L2988.5,597.1z"/>
	</g>
</g>
<g>
	<g>
		<path d="M2989.1,597.1c-0.2,5.2,0.8,11.5,7,12.5c2.5,0.4,6,0.6,8.5-0.1c2.5-0.7,4.2-2.9,5.7-4.9c1.5-2.1-1.9-4.1-3.5-2
			c-1.1,1.5-2.2,3-4.2,3.2c-1.6,0.2-3.5,0-5.1-0.1c-4.6-0.3-4.5-5.1-4.3-8.6C2993.2,594.5,2989.2,594.5,2989.1,597.1L2989.1,597.1z"
			/>
	</g>
</g>
<ellipse cx="3027.3" cy="565" rx="6.4" ry="8.9"/>
<ellipse cx="2950.8" cy="565" rx="6.4" ry="8.9"/>
</svg>
